<svg width="19" height="20" fill="none" xmlns="http://www.w3.org/2000/svg"><path d="M18.258 8.456A8.874 8.874 0 009.5 1.094 8.874 8.874 0 00.742 8.456L9.5 4.063l8.758 4.393zM.742 11.544A8.874 8.874 0 009.5 18.906a8.874 8.874 0 008.758-7.362L9.5 15.937.742 11.544z" fill="#699635"/><path d="M9.5 4.063L.742 8.456A8.779 8.779 0 00.594 10c0 .534.06 1.04.148 1.544L9.5 15.937l8.758-4.393c.089-.505.148-1.01.148-1.544s-.06-1.04-.148-1.544L9.5 4.063z" fill="#FFE62E"/><path d="M7.719 8.931c-.95 0-1.84.208-2.642.564-.03.178-.03.327-.03.505A4.447 4.447 0 009.5 14.453c1.662 0 3.117-.92 3.89-2.256-1.1-1.93-3.237-3.266-5.671-3.266z" fill="#428BC1"/><path d="M13.894 10.713c.03-.238.06-.475.06-.713A4.447 4.447 0 009.5 5.547 4.477 4.477 0 005.492 8.04a7.84 7.84 0 018.402 2.672z" fill="#428BC1"/><path d="M7.718 7.714a7.92 7.92 0 00-2.226.327 4.6 4.6 0 00-.416 1.454 6.482 6.482 0 012.642-.564c2.435 0 4.572 1.307 5.67 3.236.268-.445.416-.95.505-1.454a7.84 7.84 0 00-6.175-2.999z" fill="#fff"/><path d="M6.531 10.297a.297.297 0 100-.594.297.297 0 000 .594zm1.188 1.781a.297.297 0 100-.594.297.297 0 000 .594zm1.781 0a.297.297 0 100-.594.297.297 0 000 .594zm0 1.188a.297.297 0 100-.594.297.297 0 000 .594zm2.375-1.188a.297.297 0 100-.594.297.297 0 000 .594zm0 1.188a.297.297 0 100-.594.297.297 0 000 .594zm-1.187-.594a.297.297 0 100-.594.297.297 0 000 .594zm-4.157-1.188a.297.297 0 100-.593.297.297 0 000 .593z" fill="#fff"/></svg>