<svg width="143" height="45" fill="none" xmlns="http://www.w3.org/2000/svg"><path d="M15.38 36.224c-1.516 1.715-4.172 1.897-5.58.092A22.453 22.453 0 0127.307.047c2.289-.02 3.8 2.173 3.398 4.427-.4 2.253-2.58 3.691-4.853 3.958a14.164 14.164 0 00-10.393 21.53c1.206 1.945 1.436 4.546-.08 6.262z" fill="url(#paint0_linear_50_12054)"/><path d="M22.408 4.913c-.637-2.199.634-4.538 2.912-4.76A22.453 22.453 0 1122.548 44.4c-2.233-.505-3.201-2.985-2.295-5.087.906-2.102 3.356-3.003 5.63-2.742a14.157 14.157 0 009.028-2.001 14.164 14.164 0 00-7.258-26.235c-2.29-.024-4.608-1.224-5.245-3.423z" fill="url(#paint1_linear_50_12054)"/><g opacity=".2"><path d="M17.308 33.931c-1.272 1.437-3.5 1.584-4.676.066a18.848 18.848 0 01.22-23.349 18.759 18.759 0 0112.173-6.843 18.73 18.73 0 0110.557 1.692c1.724.83 2.05 3.03.923 4.576-1.132 1.55-3.305 1.829-5.116 1.19a11.813 11.813 0 00-5.464-.57 11.834 11.834 0 00-7.68 4.316 11.89 11.89 0 00-.859 13.688c1.003 1.629 1.19 3.802-.078 5.234z" fill="url(#paint2_linear_50_12054)"/><path d="M13.014 17.268c-1.806-.649-2.77-2.663-1.8-4.319a18.828 18.828 0 11-1.79 14.91c-.55-1.839.863-3.567 2.771-3.77 1.909-.204 3.576 1.216 4.321 2.985a11.876 11.876 0 101.402-11.683c-1.142 1.542-3.098 2.527-4.904 1.877z" fill="url(#paint3_linear_50_12054)"/></g><path d="M75.97 31.39c-2.2 0-4.07-.76-5.61-2.28-1.54-1.52-2.31-3.39-2.31-5.61s.77-4.09 2.31-5.61c1.54-1.52 3.41-2.28 5.61-2.28 2.22 0 4.09.76 5.61 2.28 1.54 1.52 2.31 3.39 2.31 5.61s-.77 4.09-2.31 5.61c-1.52 1.52-3.39 2.28-5.61 2.28zm-3.33-4.5c.9.9 2.01 1.35 3.33 1.35 1.32 0 2.43-.45 3.33-1.35.9-.9 1.35-2.03 1.35-3.39 0-1.36-.45-2.49-1.35-3.39-.9-.9-2.01-1.35-3.33-1.35-1.32 0-2.43.45-3.33 1.35-.9.9-1.35 2.03-1.35 3.39 0 1.36.45 2.49 1.35 3.39zm30.56-11.28c1.7 0 3.07.55 4.11 1.65 1.04 1.1 1.56 2.58 1.56 4.44V31h-3.24v-9.09c0-1.04-.26-1.84-.78-2.4-.52-.58-1.23-.87-2.13-.87-1 0-1.8.33-2.4.99-.58.66-.87 1.65-.87 2.97V31h-3.24v-9.09c0-1.04-.25-1.84-.75-2.4-.48-.58-1.17-.87-2.07-.87-.98 0-1.78.34-2.4 1.02-.62.66-.93 1.64-.93 2.94V31h-3.24V16h3.24v1.8c.96-1.46 2.39-2.19 4.29-2.19 1.92 0 3.34.79 4.26 2.37 1-1.58 2.53-2.37 4.59-2.37zm11.687 9.27c.24 1.14.79 2.02 1.65 2.64.86.6 1.91.9 3.15.9 1.72 0 3.01-.62 3.87-1.86l2.67 1.56c-1.48 2.18-3.67 3.27-6.57 3.27-2.44 0-4.41-.74-5.91-2.22-1.5-1.5-2.25-3.39-2.25-5.67 0-2.24.74-4.11 2.22-5.61 1.48-1.52 3.38-2.28 5.7-2.28 2.2 0 4 .77 5.4 2.31 1.42 1.54 2.13 3.41 2.13 5.61 0 .34-.04.79-.12 1.35h-11.94zm-.03-2.64h8.82c-.22-1.22-.73-2.14-1.53-2.76-.78-.62-1.7-.93-2.76-.93-1.2 0-2.2.33-3 .99-.8.66-1.31 1.56-1.53 2.7zM142.446 31h-3.75l-3.72-5.13-3.75 5.13h-3.78l5.64-7.71-5.34-7.29h3.75l3.45 4.74 3.45-4.74h3.78l-5.34 7.32 5.61 7.68z" fill="#4E79FE"/><defs><linearGradient id="paint0_linear_50_12054" x1="27.5" y1=".046" x2="27.5" y2="44.954" gradientUnits="userSpaceOnUse"><stop stop-color="#4470FE"/><stop offset="1" stop-color="#DBFFFF"/><stop offset="1" stop-color="#DBFFFF" stop-opacity=".5"/></linearGradient><linearGradient id="paint1_linear_50_12054" x1="21.688" y1="44.189" x2="33.311" y2=".811" gradientUnits="userSpaceOnUse"><stop stop-color="#4470FE"/><stop offset="1" stop-color="#DBFFFF" stop-opacity=".5"/></linearGradient><linearGradient id="paint2_linear_50_12054" x1="27.462" y1="3.646" x2="27.462" y2="41.278" gradientUnits="userSpaceOnUse"><stop stop-color="#DBFFFF"/><stop offset="1" stop-color="#4470FE"/></linearGradient><linearGradient id="paint3_linear_50_12054" x1="22.588" y1="40.648" x2="32.334" y2="4.276" gradientUnits="userSpaceOnUse"><stop stop-color="#DBFFFF"/><stop offset="1" stop-color="#4470FE"/></linearGradient></defs></svg>