<svg width="24" height="24" fill="none" xmlns="http://www.w3.org/2000/svg"><g clip-path="url(#clip0_50_19)"><path d="M2.068 5.482l8.875 8.876a1.5 1.5 0 002.008.103l.114-.103 8.869-8.87c.029.11.048.222.058.337L22 6v12a2 2 0 01-1.85 1.995L20 20H4a2 2 0 01-1.995-1.85L2 18V6c0-.12.01-.236.03-.35l.038-.168zM20 4c.121 0 .24.01.355.031l.17.039-8.52 8.52-8.523-8.522c.11-.03.224-.05.34-.06L4 4h16z" fill="#969FA8"/></g><defs><clipPath id="clip0_50_19"><path fill="#fff" d="M0 0h24v24H0z"/></clipPath></defs></svg>