<svg width="112" height="112" fill="none" xmlns="http://www.w3.org/2000/svg"><circle cx="56" cy="56" r="53.5" fill="#fff" stroke="url(#paint0_linear_309_102)" stroke-width="5"/><g clip-path="url(#clip0_309_102)"><mask id="mask0_309_102" style="mask-type:luminance" maskUnits="userSpaceOnUse" x="26" y="39" width="46" height="46"><path d="M48.584 39.3C36.112 39.3 26 48.594 26 60.028c0 5.416 2.292 10.364 6 14.041-.135 3.61-.809 8.424-3.034 10.898 4.315 0 8.764-3.343 11.326-5.683a24.29 24.29 0 008.292 1.471c12.472 0 22.584-9.294 22.584-20.727S61.056 39.3 48.584 39.3z" fill="#fff"/></mask><g filter="url(#filter0_d_309_102)" mask="url(#mask0_309_102)"><path d="M54.651 39.836c-.786 5.46 1.281 16.38 15.843 16.38 18.202 0-9.101-20.392-15.843-16.38z" fill="url(#paint1_linear_309_102)"/></g><path d="M85.73 41.975c0-7.89-6.944-14.308-15.573-14.308-7.888 0-14.427 5.416-15.438 12.369 8.157 2.14 14.494 8.358 16.112 16.18a16.183 16.183 0 005.056-1.003c1.82 1.672 4.854 3.945 7.82 3.945-1.55-1.738-2.022-5.014-2.09-7.555 2.495-2.54 4.113-5.884 4.113-9.628z" fill="url(#paint2_linear_309_102)"/><g filter="url(#filter1_b_309_102)"><path d="M48.584 39.3C36.112 39.3 26 48.594 26 60.028c0 5.416 2.292 10.364 6 14.041-.135 3.61-.809 8.424-3.034 10.898 4.315 0 8.764-3.343 11.326-5.683a24.29 24.29 0 008.292 1.471c12.472 0 22.584-9.294 22.584-20.727S61.056 39.3 48.584 39.3z" fill="url(#paint3_linear_309_102)"/><path d="M48.584 39.3C36.112 39.3 26 48.594 26 60.028c0 5.416 2.292 10.364 6 14.041-.135 3.61-.809 8.424-3.034 10.898 4.315 0 8.764-3.343 11.326-5.683a24.29 24.29 0 008.292 1.471c12.472 0 22.584-9.294 22.584-20.727S61.056 39.3 48.584 39.3z" stroke="url(#paint4_linear_309_102)" stroke-width=".794" stroke-miterlimit="10" stroke-linecap="round" stroke-linejoin="round"/></g><path d="M42.045 65.242c0 1.137-.944 2.073-2.09 2.073s-2.09-.936-2.09-2.073c0-1.136.944-2.072 2.09-2.072s2.09.936 2.09 2.072zm6.54-2.072c-1.147 0-2.09.936-2.09 2.072 0 1.137.943 2.073 2.09 2.073 1.145 0 2.09-.936 2.09-2.073 0-1.136-.945-2.072-2.09-2.072zm8.696 0c-1.146 0-2.09.936-2.09 2.072 0 1.137.944 2.073 2.09 2.073s2.09-.936 2.09-2.073c0-1.136-.944-2.072-2.09-2.072z" fill="url(#paint5_linear_309_102)"/></g><defs><linearGradient id="paint0_linear_309_102" x1="27.5" y1="11" x2="87" y2="97" gradientUnits="userSpaceOnUse"><stop stop-color="#DEE5FC"/><stop offset="1" stop-color="#DAE3FF" stop-opacity="0"/></linearGradient><linearGradient id="paint1_linear_309_102" x1="55.325" y1="41.173" x2="82.834" y2="58.763" gradientUnits="userSpaceOnUse"><stop stop-color="#4975FE"/><stop offset="1" stop-color="#B5DBFF"/></linearGradient><linearGradient id="paint2_linear_309_102" x1="61.391" y1="29.564" x2="87.245" y2="55.633" gradientUnits="userSpaceOnUse"><stop stop-color="#4470FE"/><stop offset="1" stop-color="#BCE1FF"/></linearGradient><linearGradient id="paint3_linear_309_102" x1="36.112" y1="77.278" x2="64.164" y2="45.288" gradientUnits="userSpaceOnUse"><stop stop-color="#DCE5FF"/><stop offset="1" stop-color="#fff" stop-opacity=".4"/></linearGradient><linearGradient id="paint4_linear_309_102" x1="48.588" y1="85.316" x2="48.588" y2="38.965" gradientUnits="userSpaceOnUse"><stop stop-color="#fff" stop-opacity="0"/><stop offset="1" stop-color="#DDE5FF"/></linearGradient><linearGradient id="paint5_linear_309_102" x1="42.768" y1="59.481" x2="54.313" y2="71.122" gradientUnits="userSpaceOnUse"><stop stop-color="#B8DEFF"/><stop offset="1" stop-color="#4470FE"/></linearGradient><filter id="filter0_d_309_102" x="51.175" y="39.313" width="28.809" height="23.57" filterUnits="userSpaceOnUse" color-interpolation-filters="sRGB"><feFlood flood-opacity="0" result="BackgroundImageFix"/><feColorMatrix in="SourceAlpha" values="0 0 0 0 0 0 0 0 0 0 0 0 0 0 0 0 0 0 127 0" result="hardAlpha"/><feOffset dy="3.333"/><feGaussianBlur stdDeviation="1.667"/><feComposite in2="hardAlpha" operator="out"/><feColorMatrix values="0 0 0 0 0.266667 0 0 0 0 0.439216 0 0 0 0 0.996078 0 0 0 0.39 0"/><feBlend in2="BackgroundImageFix" result="effect1_dropShadow_309_102"/><feBlend in="SourceGraphic" in2="effect1_dropShadow_309_102" result="shape"/></filter><filter id="filter1_b_309_102" x="22.269" y="35.57" width="52.63" height="53.127" filterUnits="userSpaceOnUse" color-interpolation-filters="sRGB"><feFlood flood-opacity="0" result="BackgroundImageFix"/><feGaussianBlur in="BackgroundImageFix" stdDeviation="1.667"/><feComposite in2="SourceAlpha" operator="in" result="effect1_backgroundBlur_309_102"/><feBlend in="SourceGraphic" in2="effect1_backgroundBlur_309_102" result="shape"/></filter><clipPath id="clip0_309_102"><path fill="#fff" transform="translate(26 26)" d="M0 0h60v60H0z"/></clipPath></defs></svg>