<svg width="112" height="112" fill="none" xmlns="http://www.w3.org/2000/svg"><circle cx="56" cy="56" r="53.5" fill="#fff" stroke="url(#paint0_linear_309_101)" stroke-width="5"/><g clip-path="url(#clip0_309_101)"><ellipse cx="56" cy="53.241" rx="27.5" ry="27.241" fill="url(#paint1_linear_309_101)"/><path d="M56.279 53.862c5.306 0 9.607-4.261 9.607-9.517 0-5.257-4.301-9.518-9.607-9.518-5.307 0-9.608 4.261-9.608 9.518 0 5.256 4.301 9.517 9.608 9.517z" fill="url(#paint2_linear_309_101)" stroke="url(#paint3_linear_309_101)" stroke-width=".794" stroke-miterlimit="10" stroke-linecap="round" stroke-linejoin="round"/><path d="M72.36 75.31c0 10.139-7.17 11.035-16.081 11.035-8.912 0-16.083-.896-16.083-11.034s7.171-18.345 16.083-18.345c8.841 0 16.082 8.207 16.082 18.345z" fill="url(#paint4_linear_309_101)" stroke="url(#paint5_linear_309_101)" stroke-width=".833" stroke-miterlimit="10" stroke-linecap="round" stroke-linejoin="round"/></g><defs><linearGradient id="paint0_linear_309_101" x1="27.5" y1="11" x2="87" y2="97" gradientUnits="userSpaceOnUse"><stop stop-color="#DEE5FC"/><stop offset="1" stop-color="#DAE3FF" stop-opacity="0"/></linearGradient><linearGradient id="paint1_linear_309_101" x1="76.19" y1="71.172" x2="42.078" y2="33.955" gradientUnits="userSpaceOnUse"><stop stop-color="#4470FE"/><stop offset="1" stop-color="#BCE1FF"/></linearGradient><linearGradient id="paint2_linear_309_101" x1="61.061" y1="52.577" x2="51.602" y2="36.038" gradientUnits="userSpaceOnUse"><stop stop-color="#fff" stop-opacity="0"/><stop offset=".984" stop-color="#fff" stop-opacity=".394"/><stop offset="1" stop-color="#fff" stop-opacity=".4"/></linearGradient><linearGradient id="paint3_linear_309_101" x1="56.264" y1="54.178" x2="56.264" y2="34.515" gradientUnits="userSpaceOnUse"><stop stop-color="#fff" stop-opacity="0"/><stop offset="1" stop-color="#fff" stop-opacity=".7"/></linearGradient><linearGradient id="paint4_linear_309_101" x1="63.56" y1="86.959" x2="47.883" y2="59.547" gradientUnits="userSpaceOnUse"><stop stop-color="#E1E8FF"/><stop offset=".984" stop-color="#fff" stop-opacity=".394"/></linearGradient><linearGradient id="paint5_linear_309_101" x1="56.264" y1="86.667" x2="56.264" y2="56.603" gradientUnits="userSpaceOnUse"><stop stop-color="#fff" stop-opacity="0"/><stop offset="1" stop-color="#fff" stop-opacity=".7"/></linearGradient><clipPath id="clip0_309_101"><path fill="#fff" transform="translate(26 26)" d="M0 0h60v60H0z"/></clipPath></defs></svg>