<svg width="112" height="112" fill="none" xmlns="http://www.w3.org/2000/svg"><circle cx="56" cy="56" r="53.5" fill="#fff" stroke="url(#paint0_linear_309_103)" stroke-width="5"/><g clip-path="url(#clip0_309_103)"><mask id="mask0_309_103" style="mask-type:luminance" maskUnits="userSpaceOnUse" x="25" y="43" width="61" height="37"><path d="M25.778 49.241l2.815 27.037c.222 1.852 1.777 3.334 3.63 3.334h47.11c1.852 0 3.482-1.408 3.63-3.334l2.815-27.037c.296-2.889-2-5.407-4.89-5.407h-50.22c-2.89 0-5.186 2.518-4.89 5.407z" fill="#fff"/></mask><g filter="url(#filter0_d_309_103)" mask="url(#mask0_309_103)"><path d="M33.407 71.685l-4.074-27.778h53.333l-4.074 28.519c-.296 2.074-2.592 2.84-3.703 2.963-11.235-.124-34.519-.297-37.778 0-3.26.296-3.827-2.346-3.704-3.704z" fill="url(#paint1_linear_309_103)"/></g><path d="M82.963 42.055l-.149 2.148a5.564 5.564 0 00-1.925-.37H30.665a4.65 4.65 0 00-1.407.222l-.74-8.296c-.149-2.074 1.48-3.926 3.555-3.926h8.74a3.595 3.595 0 013.556 3.185c.222 1.778 1.778 3.185 3.556 3.185h31.407c2.148 0 3.852 1.778 3.63 3.852z" fill="url(#paint2_linear_309_103)"/><g filter="url(#filter1_b_309_103)"><path d="M25.778 49.24l2.815 27.038c.222 1.852 1.777 3.333 3.63 3.333h47.11c1.852 0 3.482-1.407 3.63-3.333l2.815-27.037c.296-2.889-2-5.407-4.89-5.407h-50.22c-2.89 0-5.186 2.518-4.89 5.407z" fill="url(#paint3_linear_309_103)"/><path d="M25.778 49.24l2.815 27.038c.222 1.852 1.777 3.333 3.63 3.333h47.11c1.852 0 3.482-1.407 3.63-3.333l2.815-27.037c.296-2.889-2-5.407-4.89-5.407h-50.22c-2.89 0-5.186 2.518-4.89 5.407z" stroke="url(#paint4_linear_309_103)" stroke-width=".794" stroke-miterlimit="10" stroke-linecap="round" stroke-linejoin="round"/></g></g><defs><linearGradient id="paint0_linear_309_103" x1="27.5" y1="11" x2="87" y2="97" gradientUnits="userSpaceOnUse"><stop stop-color="#DEE5FC"/><stop offset="1" stop-color="#DAE3FF" stop-opacity="0"/></linearGradient><linearGradient id="paint1_linear_309_103" x1="33.037" y1="37.981" x2="80.444" y2="59.833" gradientUnits="userSpaceOnUse"><stop stop-color="#4470FE"/><stop offset="1" stop-color="#A2C9FF"/></linearGradient><linearGradient id="paint2_linear_309_103" x1="38.251" y1="24.271" x2="81.555" y2="57.981" gradientUnits="userSpaceOnUse"><stop stop-color="#4470FE"/><stop offset="1" stop-color="#B3D9FF"/></linearGradient><linearGradient id="paint3_linear_309_103" x1="70.494" y1="85.245" x2="42.279" y2="36.376" gradientUnits="userSpaceOnUse"><stop stop-color="#E8EDFE"/><stop offset=".984" stop-color="#fff" stop-opacity=".394"/></linearGradient><linearGradient id="paint4_linear_309_103" x1="55.773" y1="79.927" x2="55.773" y2="43.487" gradientUnits="userSpaceOnUse"><stop stop-color="#DDE5FF"/><stop offset="1" stop-color="#fff" stop-opacity=".7"/></linearGradient><filter id="filter0_d_309_103" x="26" y="43.907" width="60" height="38.171" filterUnits="userSpaceOnUse" color-interpolation-filters="sRGB"><feFlood flood-opacity="0" result="BackgroundImageFix"/><feColorMatrix in="SourceAlpha" values="0 0 0 0 0 0 0 0 0 0 0 0 0 0 0 0 0 0 127 0" result="hardAlpha"/><feOffset dy="3.333"/><feGaussianBlur stdDeviation="1.667"/><feComposite in2="hardAlpha" operator="out"/><feColorMatrix values="0 0 0 0 0.266667 0 0 0 0 0.439216 0 0 0 0 0.996078 0 0 0 1 0"/><feBlend in2="BackgroundImageFix" result="effect1_dropShadow_309_103"/><feBlend in="SourceGraphic" in2="effect1_dropShadow_309_103" result="shape"/></filter><filter id="filter1_b_309_103" x="15.354" y="33.436" width="80.846" height="56.572" filterUnits="userSpaceOnUse" color-interpolation-filters="sRGB"><feFlood flood-opacity="0" result="BackgroundImageFix"/><feGaussianBlur in="BackgroundImageFix" stdDeviation="5"/><feComposite in2="SourceAlpha" operator="in" result="effect1_backgroundBlur_309_103"/><feBlend in="SourceGraphic" in2="effect1_backgroundBlur_309_103" result="shape"/></filter><clipPath id="clip0_309_103"><path fill="#fff" transform="translate(26 26)" d="M0 0h60v60H0z"/></clipPath></defs></svg>