<svg width="112" height="112" fill="none" xmlns="http://www.w3.org/2000/svg"><circle cx="56" cy="56" r="53.5" fill="#fff" stroke="url(#paint0_linear_309_100)" stroke-width="5"/><g clip-path="url(#clip0_309_100)"><path d="M62.456 46.93c3.215 3.913 3.898 9.267 2.12 13.799-9.438-.138-17.097-7.827-17.097-17.37v-.824a13.77 13.77 0 0114.977 4.394z" fill="url(#paint1_linear_309_100)"/><path d="M41.118 64.367c-.616-.755-1.163-1.579-1.573-2.471.41-.069.889-.138 1.368-.138 4.24 0 7.796 3.227 8.207 7.415-3.01-.55-5.882-2.197-8.002-4.806z" fill="url(#paint2_linear_309_100)"/><path d="M82.085 43.36a17.457 17.457 0 01-8.96 15.24c.89-6.453-1.162-13.318-6.086-18.261-4.582-4.6-10.806-6.728-16.824-6.317 3.077-4.805 8.48-8.032 14.567-8.032 9.575 0 17.303 7.826 17.303 17.37z" fill="url(#paint3_linear_309_100)"/><path d="M46.11 76.588a8.338 8.338 0 01-5.265 1.854c-4.583 0-8.276-3.708-8.276-8.307 0-1.168.274-2.335.684-3.364.616 1.03 1.3 1.99 2.052 2.883 3.01 3.57 6.77 5.836 10.806 6.934z" fill="url(#paint4_linear_309_100)"/><g filter="url(#filter0_b_309_100)"><path d="M67.038 40.338c-8.754-8.787-23.252-8.444-31.596 1.099-6.976 8.032-7.044 20.184-.137 28.216 6.77 7.896 17.713 9.68 26.33 5.218a2.913 2.913 0 013.352.55l9.438 9.474c1.094 1.098 2.94 1.098 4.103 0l2.394-2.403c1.094-1.099 1.094-2.952 0-4.12l-9.438-9.405a2.941 2.941 0 01-.547-3.364 21.63 21.63 0 00-3.898-25.265zm-4.582 24.03a13.714 13.714 0 01-21.338 0c-4.103-5.013-4.103-12.427 0-17.439a13.714 13.714 0 0121.338 0c4.104 5.012 4.104 12.426 0 17.438z" fill="url(#paint5_linear_309_100)" fill-opacity=".1"/><path d="M67.038 40.338c-8.754-8.787-23.252-8.444-31.596 1.099-6.976 8.032-7.044 20.184-.137 28.216 6.77 7.896 17.713 9.68 26.33 5.218a2.913 2.913 0 013.352.55l9.438 9.474c1.094 1.098 2.94 1.098 4.103 0l2.394-2.403c1.094-1.099 1.094-2.952 0-4.12l-9.438-9.405a2.941 2.941 0 01-.547-3.364 21.63 21.63 0 00-3.898-25.265zm-4.582 24.03a13.714 13.714 0 01-21.338 0c-4.103-5.013-4.103-12.427 0-17.439a13.714 13.714 0 0121.338 0c4.104 5.012 4.104 12.426 0 17.438z" stroke="url(#paint6_linear_309_100)" stroke-width=".833" stroke-miterlimit="10" stroke-linecap="round" stroke-linejoin="round"/></g></g><defs><linearGradient id="paint0_linear_309_100" x1="27.5" y1="11" x2="87" y2="97" gradientUnits="userSpaceOnUse"><stop stop-color="#DEE5FC"/><stop offset="1" stop-color="#DAE3FF" stop-opacity="0"/></linearGradient><linearGradient id="paint1_linear_309_100" x1="63.167" y1="61.571" x2="50.969" y2="40.524" gradientUnits="userSpaceOnUse"><stop stop-color="#4470FE"/><stop offset="1" stop-color="#BCE1FF"/></linearGradient><linearGradient id="paint2_linear_309_100" x1="47.363" y1="70.203" x2="41.798" y2="60.6" gradientUnits="userSpaceOnUse"><stop stop-color="#4470FE"/><stop offset="1" stop-color="#D4E6FF"/></linearGradient><linearGradient id="paint3_linear_309_100" x1="77.492" y1="56.101" x2="60.081" y2="26.061" gradientUnits="userSpaceOnUse"><stop stop-color="#4470FE"/><stop offset="1" stop-color="#BCE1FF"/></linearGradient><linearGradient id="paint4_linear_309_100" x1="42.007" y1="79.086" x2="34.482" y2="66.103" gradientUnits="userSpaceOnUse"><stop stop-color="#4470FE"/><stop offset="1" stop-color="#D4E6FF"/></linearGradient><linearGradient id="paint5_linear_309_100" x1="55.955" y1="34.003" x2="86" y2="86" gradientUnits="userSpaceOnUse"><stop stop-color="#fff"/><stop offset="1" stop-color="#002BB5"/></linearGradient><linearGradient id="paint6_linear_309_100" x1="55.955" y1="34.003" x2="55.955" y2="85.719" gradientUnits="userSpaceOnUse"><stop stop-color="#D7E0FF"/><stop offset="1" stop-color="#fff" stop-opacity="0"/></linearGradient><clipPath id="clip0_309_100"><path fill="#fff" transform="translate(26 26)" d="M0 0h60v60H0z"/></clipPath><filter id="filter0_b_309_100" x="19.75" y="23.586" width="72.409" height="72.549" filterUnits="userSpaceOnUse" color-interpolation-filters="sRGB"><feFlood flood-opacity="0" result="BackgroundImageFix"/><feGaussianBlur in="BackgroundImageFix" stdDeviation="5"/><feComposite in2="SourceAlpha" operator="in" result="effect1_backgroundBlur_309_100"/><feBlend in="SourceGraphic" in2="effect1_backgroundBlur_309_100" result="shape"/></filter></defs></svg>