<svg width="43" height="43" fill="none" xmlns="http://www.w3.org/2000/svg"><g clip-path="url(#clip0_50_12722)"><ellipse cx="21.596" cy="19.411" rx="19.596" ry="19.411" fill="url(#paint0_linear_50_12722)"/><path d="M21.794 19.853c3.781 0 6.846-3.036 6.846-6.781 0-3.746-3.065-6.782-6.846-6.782-3.78 0-6.846 3.036-6.846 6.782 0 3.745 3.065 6.781 6.846 6.781z" fill="url(#paint1_linear_50_12722)" stroke="url(#paint2_linear_50_12722)" stroke-width=".566" stroke-miterlimit="10" stroke-linecap="round" stroke-linejoin="round"/><path d="M33.254 35.137c0 7.224-5.11 7.863-11.46 7.863-6.35 0-11.46-.639-11.46-7.863s5.11-13.072 11.46-13.072c6.3 0 11.46 5.848 11.46 13.072z" fill="url(#paint3_linear_50_12722)" stroke="url(#paint4_linear_50_12722)" stroke-width=".594" stroke-miterlimit="10" stroke-linecap="round" stroke-linejoin="round"/></g><defs><linearGradient id="paint0_linear_50_12722" x1="35.982" y1="32.188" x2="11.676" y2="5.668" gradientUnits="userSpaceOnUse"><stop stop-color="#4470FE"/><stop offset="1" stop-color="#BCE1FF"/></linearGradient><linearGradient id="paint1_linear_50_12722" x1="25.202" y1="18.938" x2="18.462" y2="7.152" gradientUnits="userSpaceOnUse"><stop stop-color="#fff" stop-opacity="0"/><stop offset=".984" stop-color="#fff" stop-opacity=".394"/><stop offset="1" stop-color="#fff" stop-opacity=".4"/></linearGradient><linearGradient id="paint2_linear_50_12722" x1="21.784" y1="20.078" x2="21.784" y2="6.067" gradientUnits="userSpaceOnUse"><stop stop-color="#fff" stop-opacity="0"/><stop offset="1" stop-color="#fff" stop-opacity=".7"/></linearGradient><linearGradient id="paint3_linear_50_12722" x1="26.983" y1="43.438" x2="15.811" y2="23.905" gradientUnits="userSpaceOnUse"><stop stop-color="#E1E8FF"/><stop offset=".984" stop-color="#fff" stop-opacity=".394"/></linearGradient><linearGradient id="paint4_linear_50_12722" x1="21.783" y1="43.23" x2="21.783" y2="21.807" gradientUnits="userSpaceOnUse"><stop stop-color="#fff" stop-opacity="0"/><stop offset="1" stop-color="#fff" stop-opacity=".7"/></linearGradient><clipPath id="clip0_50_12722"><path fill="#fff" d="M0 0h43v43H0z"/></clipPath></defs></svg>