<svg width="43" height="43" fill="none" xmlns="http://www.w3.org/2000/svg"><g clip-path="url(#clip0_50_12708)"><path d="M26.128 15c2.303 2.804 2.793 6.642 1.519 9.889-6.764-.098-12.253-5.61-12.253-12.448v-.59a9.869 9.869 0 0110.734 3.148z" fill="url(#paint0_linear_50_12708)"/><path d="M10.835 27.496a8.341 8.341 0 01-1.127-1.77c.294-.05.637-.1.98-.1 3.04 0 5.588 2.313 5.882 5.315-2.157-.394-4.215-1.575-5.735-3.445z" fill="url(#paint1_linear_50_12708)"/><path d="M40.194 12.44a12.51 12.51 0 01-6.421 10.923c.637-4.624-.833-9.545-4.362-13.087a15.54 15.54 0 00-12.058-4.527c2.206-3.444 6.078-5.756 10.44-5.756 6.862 0 12.4 5.609 12.4 12.448z" fill="url(#paint2_linear_50_12708)"/><path d="M14.413 36.255a5.976 5.976 0 01-3.774 1.328c-3.284 0-5.931-2.657-5.931-5.953 0-.837.196-1.673.49-2.411a15.64 15.64 0 001.47 2.066c2.157 2.559 4.853 4.183 7.745 4.97z" fill="url(#paint3_linear_50_12708)"/><g filter="url(#filter0_b_50_12708)"><path d="M29.41 10.276c-6.273-6.298-16.664-6.052-22.643.787-5 5.757-5.049 14.465-.098 20.222 4.852 5.658 12.694 6.937 18.87 3.74a2.088 2.088 0 012.401.393l6.764 6.79c.785.787 2.108.787 2.941 0l1.716-1.722c.784-.788.784-2.116 0-2.952l-6.764-6.741a2.108 2.108 0 01-.392-2.411 15.5 15.5 0 00-2.794-18.106zm-3.283 17.22a9.828 9.828 0 01-15.292 0c-2.941-3.591-2.941-8.905 0-12.497a9.828 9.828 0 0115.292 0c2.94 3.592 2.94 8.906 0 12.497z" fill="url(#paint4_linear_50_12708)" fill-opacity=".1"/><path d="M29.41 10.276c-6.273-6.298-16.664-6.052-22.643.787-5 5.757-5.049 14.465-.098 20.222 4.852 5.658 12.694 6.937 18.87 3.74a2.088 2.088 0 012.401.393l6.764 6.79c.785.787 2.108.787 2.941 0l1.716-1.722c.784-.788.784-2.116 0-2.952l-6.764-6.741a2.108 2.108 0 01-.392-2.411 15.5 15.5 0 00-2.794-18.106zm-3.283 17.22a9.828 9.828 0 01-15.292 0c-2.941-3.591-2.941-8.905 0-12.497a9.828 9.828 0 0115.292 0c2.94 3.592 2.94 8.906 0 12.497z" stroke="url(#paint5_linear_50_12708)" stroke-width=".597" stroke-miterlimit="10" stroke-linecap="round" stroke-linejoin="round"/></g></g><defs><linearGradient id="paint0_linear_50_12708" x1="26.637" y1="25.492" x2="17.895" y2="10.409" gradientUnits="userSpaceOnUse"><stop stop-color="#4470FE"/><stop offset="1" stop-color="#BCE1FF"/></linearGradient><linearGradient id="paint1_linear_50_12708" x1="15.311" y1="31.678" x2="11.322" y2="24.797" gradientUnits="userSpaceOnUse"><stop stop-color="#4470FE"/><stop offset="1" stop-color="#D4E6FF"/></linearGradient><linearGradient id="paint2_linear_50_12708" x1="36.902" y1="21.572" x2="24.424" y2=".044" gradientUnits="userSpaceOnUse"><stop stop-color="#4470FE"/><stop offset="1" stop-color="#BCE1FF"/></linearGradient><linearGradient id="paint3_linear_50_12708" x1="11.472" y1="38.045" x2="6.079" y2="28.74" gradientUnits="userSpaceOnUse"><stop stop-color="#4470FE"/><stop offset="1" stop-color="#D4E6FF"/></linearGradient><linearGradient id="paint4_linear_50_12708" x1="21.468" y1="5.735" x2="43" y2="43" gradientUnits="userSpaceOnUse"><stop stop-color="#fff"/><stop offset="1" stop-color="#002BB5"/></linearGradient><linearGradient id="paint5_linear_50_12708" x1="21.468" y1="5.735" x2="21.468" y2="42.798" gradientUnits="userSpaceOnUse"><stop stop-color="#D7E0FF"/><stop offset="1" stop-color="#fff" stop-opacity="0"/></linearGradient><clipPath id="clip0_50_12708"><path fill="#fff" d="M0 0h43v43H0z"/></clipPath><filter id="filter0_b_50_12708" x="-4.479" y="-1.73" width="51.893" height="51.993" filterUnits="userSpaceOnUse" color-interpolation-filters="sRGB"><feFlood flood-opacity="0" result="BackgroundImageFix"/><feGaussianBlur in="BackgroundImageFix" stdDeviation="3.583"/><feComposite in2="SourceAlpha" operator="in" result="effect1_backgroundBlur_50_12708"/><feBlend in="SourceGraphic" in2="effect1_backgroundBlur_50_12708" result="shape"/></filter></defs></svg>