<svg width="43" height="43" fill="none" xmlns="http://www.w3.org/2000/svg"><mask id="mask0_50_12754" style="mask-type:luminance" maskUnits="userSpaceOnUse" x="2" y="13" width="40" height="25"><path d="M2.017 17.377l1.84 17.67c.145 1.211 1.161 2.18 2.372 2.18h30.79c1.21 0 2.276-.92 2.373-2.18l1.84-17.67c.193-1.888-1.308-3.534-3.196-3.534H5.212c-1.888 0-3.389 1.646-3.195 3.534z" fill="#fff"/></mask><g filter="url(#filter0_d_50_12754)" mask="url(#mask0_50_12754)"><path d="M7.004 32.046L4.34 13.89h34.857l-2.662 18.64c-.193 1.355-1.694 1.856-2.42 1.936-7.343-.08-22.56-.193-24.69 0-2.131.194-2.502-1.533-2.421-2.42z" fill="url(#paint0_linear_50_12754)"/></g><path d="M39.391 12.681l-.097 1.404a3.637 3.637 0 00-1.258-.242H5.212c-.29 0-.63.048-.92.145l-.484-5.422C3.71 7.21 4.776 6 6.132 6h5.712a2.35 2.35 0 012.324 2.082c.145 1.162 1.162 2.082 2.324 2.082h20.527c1.404 0 2.517 1.161 2.372 2.517z" fill="url(#paint1_linear_50_12754)"/><g filter="url(#filter1_b_50_12754)"><path d="M2.017 17.377l1.84 17.67c.145 1.211 1.161 2.18 2.372 2.18h30.79c1.21 0 2.276-.92 2.373-2.18l1.84-17.67c.193-1.888-1.308-3.534-3.196-3.534H5.212c-1.888 0-3.389 1.646-3.195 3.534z" fill="url(#paint2_linear_50_12754)"/><path d="M2.017 17.377l1.84 17.67c.145 1.211 1.161 2.18 2.372 2.18h30.79c1.21 0 2.276-.92 2.373-2.18l1.84-17.67c.193-1.888-1.308-3.534-3.196-3.534H5.212c-1.888 0-3.389 1.646-3.195 3.534z" stroke="url(#paint3_linear_50_12754)" stroke-width=".519" stroke-miterlimit="10" stroke-linecap="round" stroke-linejoin="round"/></g><defs><linearGradient id="paint0_linear_50_12754" x1="6.761" y1="10.018" x2="37.746" y2="24.3" gradientUnits="userSpaceOnUse"><stop stop-color="#4470FE"/><stop offset="1" stop-color="#A2C9FF"/></linearGradient><linearGradient id="paint1_linear_50_12754" x1="10.169" y1="1.058" x2="38.471" y2="23.09" gradientUnits="userSpaceOnUse"><stop stop-color="#4470FE"/><stop offset="1" stop-color="#B3D9FF"/></linearGradient><linearGradient id="paint2_linear_50_12754" x1="31.242" y1="40.908" x2="12.802" y2="8.969" gradientUnits="userSpaceOnUse"><stop stop-color="#E8EDFE"/><stop offset=".984" stop-color="#fff" stop-opacity=".394"/></linearGradient><linearGradient id="paint3_linear_50_12754" x1="21.621" y1="37.433" x2="21.621" y2="13.616" gradientUnits="userSpaceOnUse"><stop stop-color="#DDE5FF"/><stop offset="1" stop-color="#fff" stop-opacity=".7"/></linearGradient><filter id="filter0_d_50_12754" x="2.162" y="13.891" width="39.215" height="24.948" filterUnits="userSpaceOnUse" color-interpolation-filters="sRGB"><feFlood flood-opacity="0" result="BackgroundImageFix"/><feColorMatrix in="SourceAlpha" values="0 0 0 0 0 0 0 0 0 0 0 0 0 0 0 0 0 0 127 0" result="hardAlpha"/><feOffset dy="2.179"/><feGaussianBlur stdDeviation="1.089"/><feComposite in2="hardAlpha" operator="out"/><feColorMatrix values="0 0 0 0 0.266667 0 0 0 0 0.439216 0 0 0 0 0.996078 0 0 0 1 0"/><feBlend in2="BackgroundImageFix" result="effect1_dropShadow_50_12754"/><feBlend in="SourceGraphic" in2="effect1_dropShadow_50_12754" result="shape"/></filter><filter id="filter1_b_50_12754" x="-4.795" y="7.048" width="52.839" height="36.974" filterUnits="userSpaceOnUse" color-interpolation-filters="sRGB"><feFlood flood-opacity="0" result="BackgroundImageFix"/><feGaussianBlur in="BackgroundImageFix" stdDeviation="3.268"/><feComposite in2="SourceAlpha" operator="in" result="effect1_backgroundBlur_50_12754"/><feBlend in="SourceGraphic" in2="effect1_backgroundBlur_50_12754" result="shape"/></filter></defs></svg>