<svg width="43" height="43" fill="none" xmlns="http://www.w3.org/2000/svg"><mask id="mask0_50_12735" style="mask-type:luminance" maskUnits="userSpaceOnUse" x="1" y="9" width="32" height="33"><path d="M16.503 9.986C7.942 9.986 1 16.366 1 24.214c0 3.718 1.573 7.114 4.119 9.638-.093 2.479-.556 5.783-2.083 7.482 2.962 0 6.016-2.295 7.775-3.902a16.675 16.675 0 005.692 1.01c8.561 0 15.503-6.38 15.503-14.228S25.064 9.986 16.503 9.986z" fill="#fff"/></mask><g filter="url(#filter0_d_50_12735)" mask="url(#mask0_50_12735)"><path d="M20.668 10.353c-.54 3.749.88 11.245 10.875 11.245 12.495 0-6.247-13.998-10.875-11.245z" fill="url(#paint0_linear_50_12735)"/></g><path d="M42.002 11.822C42.002 6.406 37.235 2 31.312 2c-5.415 0-9.904 3.718-10.598 8.49 5.6 1.47 9.95 5.738 11.06 11.108a11.109 11.109 0 003.471-.688c1.25 1.147 3.332 2.707 5.368 2.707-1.064-1.193-1.388-3.442-1.434-5.186 1.712-1.744 2.823-4.039 2.823-6.61z" fill="url(#paint1_linear_50_12735)"/><g filter="url(#filter1_b_50_12735)"><path d="M16.503 9.986C7.942 9.986 1 16.366 1 24.214c0 3.718 1.573 7.114 4.119 9.638-.093 2.479-.556 5.783-2.083 7.482 2.962 0 6.016-2.295 7.775-3.902a16.675 16.675 0 005.692 1.01c8.561 0 15.503-6.38 15.503-14.228S25.064 9.986 16.503 9.986z" fill="url(#paint2_linear_50_12735)"/><path d="M16.503 9.986C7.942 9.986 1 16.366 1 24.214c0 3.718 1.573 7.114 4.119 9.638-.093 2.479-.556 5.783-2.083 7.482 2.962 0 6.016-2.295 7.775-3.902a16.675 16.675 0 005.692 1.01c8.561 0 15.503-6.38 15.503-14.228S25.064 9.986 16.503 9.986z" stroke="url(#paint3_linear_50_12735)" stroke-width=".545" stroke-miterlimit="10" stroke-linecap="round" stroke-linejoin="round"/></g><path d="M12.014 27.794a1.436 1.436 0 01-2.87 0 1.436 1.436 0 012.87 0zm4.489-1.423c-.787 0-1.435.643-1.435 1.423a1.436 1.436 0 002.87 0c0-.78-.649-1.423-1.435-1.423zm5.97 0c-.787 0-1.435.643-1.435 1.423a1.436 1.436 0 002.87 0c0-.78-.649-1.423-1.435-1.423z" fill="url(#paint4_linear_50_12735)"/><defs><linearGradient id="paint0_linear_50_12735" x1="21.131" y1="11.271" x2="40.014" y2="23.346" gradientUnits="userSpaceOnUse"><stop stop-color="#4975FE"/><stop offset="1" stop-color="#B5DBFF"/></linearGradient><linearGradient id="paint1_linear_50_12735" x1="25.294" y1="3.302" x2="43.042" y2="21.198" gradientUnits="userSpaceOnUse"><stop stop-color="#4470FE"/><stop offset="1" stop-color="#BCE1FF"/></linearGradient><linearGradient id="paint2_linear_50_12735" x1="7.942" y1="36.056" x2="27.198" y2="14.097" gradientUnits="userSpaceOnUse"><stop stop-color="#DCE5FF"/><stop offset="1" stop-color="#fff" stop-opacity=".4"/></linearGradient><linearGradient id="paint3_linear_50_12735" x1="16.506" y1="41.573" x2="16.506" y2="9.756" gradientUnits="userSpaceOnUse"><stop stop-color="#fff" stop-opacity="0"/><stop offset="1" stop-color="#DDE5FF"/></linearGradient><linearGradient id="paint4_linear_50_12735" x1="12.51" y1="23.839" x2="20.435" y2="31.83" gradientUnits="userSpaceOnUse"><stop stop-color="#B8DEFF"/><stop offset="1" stop-color="#4470FE"/></linearGradient><filter id="filter0_d_50_12735" x="18.281" y="9.995" width="19.777" height="16.18" filterUnits="userSpaceOnUse" color-interpolation-filters="sRGB"><feFlood flood-opacity="0" result="BackgroundImageFix"/><feColorMatrix in="SourceAlpha" values="0 0 0 0 0 0 0 0 0 0 0 0 0 0 0 0 0 0 127 0" result="hardAlpha"/><feOffset dy="2.288"/><feGaussianBlur stdDeviation="1.144"/><feComposite in2="hardAlpha" operator="out"/><feColorMatrix values="0 0 0 0 0.266667 0 0 0 0 0.439216 0 0 0 0 0.996078 0 0 0 0.39 0"/><feBlend in2="BackgroundImageFix" result="effect1_dropShadow_50_12735"/><feBlend in="SourceGraphic" in2="effect1_dropShadow_50_12735" result="shape"/></filter><filter id="filter1_b_50_12735" x="-1.561" y="7.425" width="36.127" height="36.469" filterUnits="userSpaceOnUse" color-interpolation-filters="sRGB"><feFlood flood-opacity="0" result="BackgroundImageFix"/><feGaussianBlur in="BackgroundImageFix" stdDeviation="1.144"/><feComposite in2="SourceAlpha" operator="in" result="effect1_backgroundBlur_50_12735"/><feBlend in="SourceGraphic" in2="effect1_backgroundBlur_50_12735" result="shape"/></filter></defs></svg>