<svg width="18" height="17" fill="none" xmlns="http://www.w3.org/2000/svg"><path d="M15.508 7.27l-3.947-.342h0a1.226 1.226 0 01-1.022-.746l-1.54-3.668-1.54 3.668a1.225 1.225 0 01-1.021.746h0l-3.952.342 3.002 2.617 10.02-2.617zm0 0l-2.996 2.614a1.224 1.224 0 00-.39 1.203l3.386-3.817zm.348-1.302h0l-4.116-.355-1.613-3.837a1.221 1.221 0 00-2.255 0L6.264 5.613l-4.12.357.008.1-.009-.1h0a1.225 1.225 0 00-.697 2.148s0 0 0 0l3.126 2.732-.937 4.058s0 0 0 0a1.225 1.225 0 001.825 1.327h0l3.535-2.148 3.542 2.148h0a1.225 1.225 0 001.825-1.327l-.936-4.062 3.125-2.728s0 0 0 0a1.226 1.226 0 00-.695-2.15zm-9.427.86a1.125 1.125 0 00.939-.685l-.939.686zm5.694 4.26l.899 3.891-3.388-2.056a1.218 1.218 0 00-1.267 0l-3.384 2.056.894-3.889s0 0 0 0a1.225 1.225 0 00-.39-1.203l6.636 1.2z" fill="#4470FE" stroke="#4470FE" stroke-width=".2"/></svg>