<svg width="22" height="22" fill="none" xmlns="http://www.w3.org/2000/svg"><rect x="2" y="6" width="18" height="14" rx="4" fill="#E8F3FF"/><path d="M5.5 9.166h3.667" stroke="#4470FE" stroke-width="1.5" stroke-linecap="round" stroke-linejoin="round"/><path d="M19.097 10.084h-2.385c-1.636 0-2.962 1.23-2.962 2.75 0 1.518 1.326 2.75 2.96 2.75h2.387c.077 0 .114 0 .147-.002.495-.03.889-.396.92-.856.003-.029.003-.065.003-.135v-3.515c0-.07 0-.106-.002-.135-.033-.46-.426-.825-.921-.856-.032-.002-.07-.002-.147-.002z" stroke="#4470FE" stroke-width="1.5"/><path d="M19.218 10.083c-.072-1.716-.301-2.768-1.043-3.509C17.102 5.5 15.373 5.5 11.916 5.5h-2.75c-3.456 0-5.185 0-6.259 1.074-1.074 1.074-1.074 2.803-1.074 6.26 0 3.456 0 5.185 1.074 6.258 1.074 1.075 2.803 1.075 6.26 1.075h2.75c3.456 0 5.185 0 6.258-1.075.742-.74.972-1.793 1.043-3.509" stroke="#4470FE" stroke-width="1.5"/><path d="M5.5 5.5l3.424-2.27a2.967 2.967 0 013.236 0l3.423 2.27" stroke="#4470FE" stroke-width="1.5" stroke-linecap="round"/><path d="M16.491 12.834h.01" stroke="#4470FE" stroke-width="2" stroke-linecap="round" stroke-linejoin="round"/></svg>