<svg width="199" height="71" fill="none" xmlns="http://www.w3.org/2000/svg"><g clip-path="url(#clip0_309_96)" fill="#007DFC"><path fill-rule="evenodd" clip-rule="evenodd" d="M39.495 29.348A8.034 8.034 0 0035.04 28v-8c3.172 0 6.273.938 8.91 2.697a16.01 16.01 0 015.908 7.18 15.964 15.964 0 01-3.477 17.437 16.052 16.052 0 01-8.212 4.379c-3.112.617-6.337.3-9.267-.91a16.032 16.032 0 01-7.199-5.894A15.972 15.972 0 0119 36h8.02a7.99 7.99 0 001.351 4.445 8.015 8.015 0 003.6 2.946 8.036 8.036 0 008.74-1.734 7.98 7.98 0 001.738-8.718 8.005 8.005 0 00-2.954-3.59z"/><path fill-rule="evenodd" clip-rule="evenodd" d="M27.02 20a7.982 7.982 0 01-2.35 5.657A8.02 8.02 0 0119 28v8a16.074 16.074 0 0011.342-4.686A15.967 15.967 0 0035.04 20h-8.02z"/><path d="M119.744 31.562h-3.891v12.33h3.891v-12.33zm-3.458-2.309c.406.406.915.61 1.525.61.61 0 1.111-.204 1.501-.61.39-.422.585-.93.585-1.522 0-.609-.195-1.116-.585-1.522-.39-.406-.891-.609-1.501-.609-.61 0-1.119.203-1.525.609-.391.406-.586.913-.586 1.522 0 .592.195 1.1.586 1.522zm-56.26 14.639V25.98h3.993v14.41h7.96v3.502H60.027z"/><path fill-rule="evenodd" clip-rule="evenodd" d="M79.17 44.17c-1.271 0-2.424-.278-3.459-.836A6.524 6.524 0 0173.296 41c-.593-.981-.89-2.08-.89-3.298s.297-2.31.89-3.273a6.394 6.394 0 012.416-2.284c1.018-.575 2.17-.862 3.46-.862 1.288 0 2.44.279 3.458.837a6.333 6.333 0 012.416 2.309c.594.964.89 2.055.89 3.273 0 1.217-.296 2.317-.89 3.298a6.523 6.523 0 01-2.416 2.334c-1.017.558-2.17.837-3.459.837zm0-3.526c.56 0 1.052-.118 1.475-.355.424-.253.746-.6.967-1.04.237-.457.356-.972.356-1.547s-.119-1.075-.356-1.497a2.49 2.49 0 00-.992-1.015c-.407-.254-.89-.38-1.45-.38a2.77 2.77 0 00-1.45.38 2.491 2.491 0 00-.991 1.015c-.238.44-.356.947-.356 1.522 0 .558.118 1.066.356 1.522.237.44.568.787.992 1.04a2.92 2.92 0 001.45.355zm9.848 8.068c1.034.474 2.23.71 3.586.71 1.322 0 2.5-.262 3.535-.786 1.034-.524 1.848-1.252 2.442-2.182.593-.93.89-2.03.89-3.298V31.562h-3.815v.828a4.111 4.111 0 00-.967-.6c-.661-.321-1.415-.482-2.263-.482-1.136 0-2.145.27-3.027.812a5.622 5.622 0 00-2.085 2.182c-.509.913-.763 1.945-.763 3.095 0 1.133.254 2.165.763 3.095a5.81 5.81 0 002.085 2.207c.882.542 1.89.812 3.027.812.83 0 1.585-.16 2.263-.482a4.54 4.54 0 00.89-.55v.779c0 .862-.28 1.53-.839 2.004-.542.473-1.297.71-2.263.71-.78 0-1.45-.135-2.01-.406-.542-.27-1.034-.668-1.475-1.192l-2.39 2.385c.593.845 1.398 1.496 2.416 1.953zm5.544-9.006c-.39.236-.856.355-1.399.355-.542 0-1.017-.118-1.424-.355a2.506 2.506 0 01-.916-.964 2.867 2.867 0 01-.33-1.345c0-.507.11-.964.33-1.37.22-.406.535-.727.942-.964a2.73 2.73 0 011.398-.355c.543 0 1.01.118 1.4.355.406.237.711.558.915.964.22.406.33.863.33 1.37 0 .508-.11.964-.33 1.37-.204.39-.509.702-.916.939zm13.098 4.464c-1.272 0-2.425-.278-3.459-.836A6.514 6.514 0 01101.785 41c-.594-.981-.89-2.08-.89-3.298s.296-2.31.89-3.273a6.385 6.385 0 012.416-2.284c1.017-.575 2.17-.862 3.459-.862 1.288 0 2.441.279 3.458.837a6.334 6.334 0 012.417 2.309c.593.964.89 2.055.89 3.273 0 1.217-.297 2.317-.89 3.298a6.525 6.525 0 01-2.417 2.334c-1.017.558-2.17.837-3.458.837zm0-3.526c.559 0 1.051-.118 1.475-.355.423-.253.746-.6.966-1.04.238-.457.356-.972.356-1.547s-.118-1.075-.356-1.497a2.488 2.488 0 00-.992-1.015c-.406-.254-.89-.38-1.449-.38-.543 0-1.026.126-1.45.38a2.488 2.488 0 00-.992 1.015c-.237.44-.356.947-.356 1.522 0 .558.119 1.066.356 1.522.237.44.568.787.992 1.04a2.92 2.92 0 001.45.355zm21.436 3.501c-.83 0-1.593-.16-2.288-.482a4.855 4.855 0 01-.992-.605v6.035h-3.84V31.562h3.891v.85a4.8 4.8 0 01.941-.596 5.157 5.157 0 012.288-.508c1.17 0 2.205.28 3.103.837a5.781 5.781 0 012.137 2.284c.526.964.788 2.063.788 3.298 0 1.235-.262 2.334-.788 3.298a5.782 5.782 0 01-2.137 2.283c-.898.559-1.933.837-3.103.837zm-.711-3.5c.559 0 1.043-.127 1.449-.381.424-.254.755-.6.992-1.04.238-.44.356-.939.356-1.497 0-.575-.118-1.082-.356-1.522a2.487 2.487 0 00-.992-1.015c-.406-.254-.881-.38-1.424-.38-.542 0-1.026.126-1.449.38a2.538 2.538 0 00-.967 1.015c-.237.44-.356.947-.356 1.522 0 .558.11 1.057.331 1.497.237.44.567.786.992 1.04.423.254.898.38 1.424.38z"/><path d="M138.933 43.917a8.51 8.51 0 002.161.28c1.543 0 2.764-.356 3.663-1.066.915-.71 1.373-1.666 1.373-2.867 0-.778-.144-1.404-.432-1.878a3.36 3.36 0 00-1.119-1.167 6.7 6.7 0 00-1.45-.684c-.509-.17-.992-.313-1.449-.432a5.265 5.265 0 01-1.12-.406c-.288-.152-.432-.355-.432-.609 0-.236.11-.414.33-.532.221-.136.551-.203.992-.203.458 0 .924.093 1.399.279.492.186.933.507 1.322.964l2.213-2.233c-.559-.71-1.288-1.243-2.187-1.598-.881-.372-1.848-.558-2.899-.558-1 0-1.874.169-2.619.507-.747.339-1.324.804-1.73 1.395-.407.575-.611 1.26-.611 2.055 0 .745.145 1.362.433 1.852.288.474.661.846 1.118 1.117.458.27.942.482 1.45.634.509.152.992.296 1.45.431.458.119.831.263 1.119.432.306.152.458.38.458.685 0 .236-.127.422-.382.558-.237.135-.584.203-1.042.203a4.645 4.645 0 01-1.831-.355 4.46 4.46 0 01-1.45-1.04l-2.213 2.232c.424.457.933.863 1.526 1.218.611.338 1.264.6 1.959.786zm14.293.253c-1.136 0-2.144-.227-3.026-.684a5.302 5.302 0 01-2.034-1.928c-.493-.829-.738-1.776-.738-2.842v-7.154h3.891v7.104c0 .422.067.786.204 1.09.152.305.373.542.66.71.289.17.636.255 1.043.255.577 0 1.035-.178 1.374-.533.339-.372.508-.88.508-1.522v-7.104H159v7.129c0 1.082-.246 2.038-.738 2.867a5.311 5.311 0 01-2.035 1.928c-.864.457-1.865.685-3.001.685zm11.599-12.608h-3.891v12.33h3.891v-7.205c0-.423.085-.778.254-1.066.187-.287.433-.507.738-.66a2.115 2.115 0 011.042-.253c.56 0 1.026.177 1.399.533.391.338.586.82.586 1.446v7.205h3.891v-7.205c0-.423.085-.778.254-1.066.187-.287.432-.507.738-.66a2.115 2.115 0 011.042-.253c.56 0 1.026.177 1.399.533.39.338.585.82.585 1.446v7.205h3.892v-7.637c0-1.031-.221-1.91-.662-2.638a4.241 4.241 0 00-1.755-1.7c-.729-.406-1.568-.609-2.518-.609-.966 0-1.84.212-2.619.634-.507.27-.95.618-1.329 1.044a4.334 4.334 0 00-1.291-1.094c-.678-.39-1.449-.584-2.314-.584-.916 0-1.738.195-2.467.584a4.28 4.28 0 00-.865.581v-.911z"/></g><g filter="url(#filter0_b_309_96)"><path fill="#fff" fill-opacity=".7" d="M0 0h199v71H0z"/></g><defs><clipPath id="clip0_309_96"><path fill="#fff" transform="translate(19 20)" d="M0 0h162v32H0z"/></clipPath><filter id="filter0_b_309_96" x="-12" y="-12" width="223" height="95" filterUnits="userSpaceOnUse" color-interpolation-filters="sRGB"><feFlood flood-opacity="0" result="BackgroundImageFix"/><feGaussianBlur in="BackgroundImageFix" stdDeviation="6"/><feComposite in2="SourceAlpha" operator="in" result="effect1_backgroundBlur_309_96"/><feBlend in="SourceGraphic" in2="effect1_backgroundBlur_309_96" result="shape"/></filter></defs></svg>