<svg width="199" height="71" fill="none" xmlns="http://www.w3.org/2000/svg"><path d="M52.585 39.517h2.833v13.89h-2.833v-13.89zm4.475 9.131a5.043 5.043 0 115.043 5.033 4.984 4.984 0 01-5.042-5.033zm7.234 0a2.19 2.19 0 10-2.19 2.247 2.133 2.133 0 002.19-2.247z" fill="#394149"/><path d="M78.534 43.889v9.046c0 3.201-2.502 4.552-5.033 4.552a4.863 4.863 0 01-4.504-2.305l2.436-1.407a2.172 2.172 0 002.125 1.2 1.887 1.887 0 002.19-2.04v-.878a3.36 3.36 0 01-2.775 1.237 4.835 4.835 0 010-9.67 3.39 3.39 0 012.776 1.237v-.944l2.785-.028zm-2.785 4.57a2.304 2.304 0 10-2.304 2.21 2.153 2.153 0 002.304-2.21zm4.419.189a5.043 5.043 0 115.043 5.033 4.985 4.985 0 01-5.043-5.033zm7.234 0a2.191 2.191 0 10-2.191 2.247 2.134 2.134 0 002.172-2.247h.019zm4.164-7.309a1.719 1.719 0 111.719 1.719 1.728 1.728 0 01-1.719-1.719zm.293 2.55h2.833v9.518h-2.833V43.89zm15.184 4.759a4.785 4.785 0 01-1.224 3.462 4.781 4.781 0 01-3.318 1.571 3.62 3.62 0 01-2.833-1.161v4.721h-2.833V43.89h2.833v.897a3.616 3.616 0 012.833-1.162 4.782 4.782 0 014.273 3.174 4.77 4.77 0 01.269 1.85zm-2.833 0a2.262 2.262 0 00-2.722-2.163 2.264 2.264 0 00-1.648 3.061 2.265 2.265 0 002.047 1.425 2.174 2.174 0 002.304-2.323h.019zm11.653 1.907c0 2.191-1.889 3.126-3.967 3.126a4.174 4.174 0 01-4.088-2.266l2.474-1.407a1.564 1.564 0 001.614 1.123c.69 0 1.03-.217 1.03-.595 0-1.048-4.722-.49-4.722-3.777 0-2.077 1.757-3.125 3.777-3.125a4.188 4.188 0 013.721 2.04l-2.483 1.303a1.41 1.41 0 00-1.285-.841c-.491 0-.793.189-.793.538.038 1.086 4.722.36 4.722 3.881zm10.425-6.666v9.518h-2.833v-.887a3.25 3.25 0 01-2.719 1.161c-1.889 0-3.56-1.37-3.56-3.947v-5.845h2.833v5.43a1.563 1.563 0 00.444 1.27 1.56 1.56 0 001.265.458c1.039 0 1.766-.605 1.766-1.955v-5.203h2.804zm16.374 3.682v5.836h-2.833v-5.59c0-.944-.463-1.568-1.369-1.568-.907 0-1.492.67-1.492 1.794v5.364h-2.833v-5.59c0-.944-.453-1.568-1.369-1.568-.916 0-1.483.67-1.483 1.794v5.364h-2.833V43.89h2.833v.878a2.922 2.922 0 012.55-1.143 2.835 2.835 0 012.493 1.256 3.13 3.13 0 012.757-1.256c2.153 0 3.579 1.568 3.579 3.947zm2.418-3.739a2.115 2.115 0 100-4.23 2.115 2.115 0 000 4.23zm-60.436-11.52c5.47 0 9.906-4.435 9.906-9.906 0-5.471-4.435-9.906-9.906-9.906-5.47 0-9.906 4.435-9.906 9.906 0 5.47 4.435 9.906 9.906 9.906zm22.145 0c5.47 0 9.905-4.435 9.905-9.906 0-5.471-4.435-9.906-9.905-9.906-5.471 0-9.906 4.435-9.906 9.906 0 5.47 4.435 9.906 9.906 9.906zM72.406 12.5H52.604v19.802h19.802V12.5z" fill="#394149"/><g filter="url(#filter0_b_309_98)"><path fill="#fff" fill-opacity=".7" d="M0 0h199v71H0z"/></g><defs><filter id="filter0_b_309_98" x="-12" y="-12" width="223" height="95" filterUnits="userSpaceOnUse" color-interpolation-filters="sRGB"><feFlood flood-opacity="0" result="BackgroundImageFix"/><feGaussianBlur in="BackgroundImageFix" stdDeviation="6"/><feComposite in2="SourceAlpha" operator="in" result="effect1_backgroundBlur_309_98"/><feBlend in="SourceGraphic" in2="effect1_backgroundBlur_309_98" result="shape"/></filter></defs></svg>