<svg width="199" height="71" fill="none" xmlns="http://www.w3.org/2000/svg"><g clip-path="url(#clip0_309_97)"><path d="M36.447 44.968c-2.986 2.986-8.044 2.974-9.456-1.006A17.209 17.209 0 0152.768 23.9a17.207 17.207 0 016.656 20.062c-1.412 3.98-6.47 3.992-9.456 1.006l-4.61-4.61c-.44-.44-.394-1.166-.273-1.777a1.915 1.915 0 10-3.755 0c.122.61.167 1.337-.273 1.777l-4.61 4.61z" fill="url(#paint0_linear_309_97)"/><path d="M74.415 40.837h4.625v2.725h-8.156V29.067h3.53v11.77zm10.935 2.891c-1.13 0-2.148-.241-3.057-.723a5.38 5.38 0 01-2.127-2.065c-.509-.895-.764-1.941-.764-3.139 0-1.184.262-2.223.785-3.118a5.307 5.307 0 012.147-2.085c.909-.482 1.928-.723 3.056-.723 1.13 0 2.148.241 3.056.723a5.305 5.305 0 012.148 2.085c.523.895.785 1.934.785 3.118s-.269 2.23-.806 3.139a5.31 5.31 0 01-2.168 2.065c-.908.482-1.927.723-3.056.723zm0-3.056c.674 0 1.245-.248 1.713-.744.482-.495.723-1.204.723-2.127 0-.922-.234-1.63-.702-2.127a2.204 2.204 0 00-1.694-.743c-.688 0-1.26.248-1.713.744-.455.481-.682 1.19-.682 2.126 0 .923.22 1.632.661 2.127a2.203 2.203 0 001.693.744zm11.66-8.797c.813 0 1.521.165 2.127.496.62.33 1.095.764 1.425 1.3v-1.63h3.531v11.5c0 1.06-.213 2.018-.64 2.87-.413.868-1.053 1.556-1.921 2.066-.853.51-1.92.764-3.2.764-1.707 0-3.09-.406-4.15-1.218-1.06-.799-1.666-1.886-1.818-3.263h3.49c.11.44.372.785.785 1.032.413.262.922.393 1.528.393.73 0 1.307-.214 1.734-.64.441-.413.661-1.08.661-2.003V41.91a4 4 0 01-1.425 1.322c-.606.33-1.314.496-2.127.496-.95 0-1.81-.241-2.58-.723-.772-.496-1.384-1.19-1.839-2.086-.44-.908-.66-1.954-.66-3.138s.22-2.224.66-3.118c.455-.895 1.067-1.583 1.838-2.065a4.771 4.771 0 012.581-.723zm3.552 5.926c0-.88-.248-1.576-.743-2.085a2.35 2.35 0 00-1.776-.764c-.702 0-1.301.255-1.797.764-.481.495-.722 1.184-.722 2.065 0 .88.24 1.583.722 2.106.496.51 1.095.764 1.797.764a2.35 2.35 0 001.776-.764c.495-.51.743-1.205.743-2.086zm10.711 5.927c-1.129 0-2.147-.241-3.056-.723a5.378 5.378 0 01-2.127-2.065c-.509-.895-.764-1.941-.764-3.139 0-1.184.262-2.223.785-3.118a5.307 5.307 0 012.147-2.085c.909-.482 1.928-.723 3.056-.723 1.129 0 2.148.241 3.056.723a5.304 5.304 0 012.148 2.085c.523.895.785 1.934.785 3.118s-.269 2.23-.806 3.139a5.311 5.311 0 01-2.168 2.065c-.908.482-1.927.723-3.056.723zm0-3.056c.675 0 1.246-.248 1.714-.744.482-.495.723-1.204.723-2.127 0-.922-.234-1.63-.702-2.127a2.205 2.205 0 00-1.694-.743c-.688 0-1.259.248-1.714.744-.454.481-.681 1.19-.681 2.126 0 .923.22 1.632.661 2.127a2.203 2.203 0 001.693.744zm9.059-9.829c-.62 0-1.129-.18-1.528-.537a1.819 1.819 0 01-.578-1.363c0-.55.192-1.005.578-1.363.399-.372.908-.557 1.528-.557.605 0 1.101.185 1.486.557.4.358.599.812.599 1.363 0 .537-.199.991-.599 1.363-.385.358-.881.537-1.486.537zm1.755 1.197v11.522h-3.531V32.04h3.531zm5.47 1.632a3.83 3.83 0 011.425-1.301c.606-.33 1.315-.496 2.127-.496.95 0 1.81.241 2.581.723.771.482 1.377 1.17 1.817 2.065.454.895.682 1.934.682 3.118s-.228 2.23-.682 3.138c-.44.895-1.046 1.59-1.817 2.086a4.77 4.77 0 01-2.581.723c-.799 0-1.507-.166-2.127-.496-.606-.33-1.081-.757-1.425-1.28v7.103h-3.531V32.04h3.531v1.632zm5.039 4.109c0-.881-.248-1.57-.744-2.065-.482-.51-1.08-.764-1.796-.764-.702 0-1.301.255-1.797.764-.481.51-.722 1.204-.722 2.085s.241 1.576.722 2.086c.496.51 1.095.764 1.797.764s1.301-.255 1.796-.764c.496-.523.744-1.225.744-2.106zm9.513 5.947c-1.005 0-1.9-.172-2.685-.517-.784-.344-1.404-.812-1.858-1.404a3.775 3.775 0 01-.764-2.023h3.49c.041.399.227.722.557.97.331.248.737.372 1.219.372.44 0 .777-.083 1.011-.248.248-.179.372-.406.372-.681 0-.33-.172-.572-.516-.723-.344-.165-.902-.344-1.673-.537a17.027 17.027 0 01-2.065-.599 3.707 3.707 0 01-1.424-1.012c-.4-.468-.599-1.094-.599-1.879 0-.66.179-1.26.537-1.796.371-.55.908-.984 1.61-1.301.716-.317 1.563-.475 2.54-.475 1.445 0 2.581.358 3.407 1.074.84.716 1.322 1.666 1.446 2.85h-3.263a1.391 1.391 0 00-.537-.95c-.289-.234-.674-.351-1.156-.351-.413 0-.73.082-.95.247a.732.732 0 00-.33.64c0 .33.172.579.516.744.358.165.908.33 1.652.495.853.22 1.548.44 2.085.661a3.39 3.39 0 011.404 1.033c.413.468.627 1.1.641 1.9 0 .674-.193 1.28-.579 1.816-.371.523-.915.937-1.631 1.24-.702.302-1.521.454-2.457.454zm17.585-11.688v11.522h-3.531v-1.569c-.358.51-.847.922-1.466 1.239-.606.303-1.28.454-2.024.454-.881 0-1.659-.192-2.333-.578-.675-.4-1.198-.97-1.569-1.714-.372-.743-.558-1.617-.558-2.622V32.04h3.51v6.257c0 .77.2 1.37.599 1.796.399.427.936.64 1.611.64.688 0 1.232-.213 1.631-.64.399-.426.599-1.025.599-1.796V32.04h3.531zm16.619-.124c1.431 0 2.567.434 3.407 1.301.853.867 1.28 2.072 1.28 3.614v6.731h-3.51v-6.256c0-.744-.2-1.315-.599-1.714-.386-.413-.922-.62-1.611-.62-.688 0-1.232.207-1.631.62-.385.4-.578.97-.578 1.714v6.256h-3.511v-6.256c0-.744-.199-1.315-.598-1.714-.386-.413-.923-.62-1.611-.62s-1.232.207-1.631.62c-.386.4-.578.97-.578 1.714v6.256h-3.531V32.04h3.531v1.446c.358-.482.826-.86 1.404-1.136.578-.29 1.232-.434 1.961-.434.868 0 1.639.186 2.313.558a3.986 3.986 0 011.611 1.59 4.64 4.64 0 011.631-1.549 4.408 4.408 0 012.251-.599z" fill="#3A3B7B"/></g><g filter="url(#filter0_b_309_97)"><path fill="#fff" fill-opacity=".7" d="M0 0h199v71H0z"/></g><defs><linearGradient id="paint0_linear_309_97" x1="58.849" y1="29.604" x2="28.305" y2="29.604" gradientUnits="userSpaceOnUse"><stop stop-color="#64C2DB"/><stop offset=".51" stop-color="#7476ED"/><stop offset="1" stop-color="#E56F8C"/></linearGradient><clipPath id="clip0_309_97"><path fill="#fff" transform="translate(26 21)" d="M0 0h155v29H0z"/></clipPath><filter id="filter0_b_309_97" x="-12" y="-12" width="223" height="95" filterUnits="userSpaceOnUse" color-interpolation-filters="sRGB"><feFlood flood-opacity="0" result="BackgroundImageFix"/><feGaussianBlur in="BackgroundImageFix" stdDeviation="6"/><feComposite in2="SourceAlpha" operator="in" result="effect1_backgroundBlur_309_97"/><feBlend in="SourceGraphic" in2="effect1_backgroundBlur_309_97" result="shape"/></filter></defs></svg>