<svg width="199" height="71" fill="none" xmlns="http://www.w3.org/2000/svg"><g clip-path="url(#clip0_309_95)"><path d="M166.315 26.131l3.339 3.362a.741.741 0 01.248.36c.068.828-.558.873-1.198.92-.277.02-.556.04-.782.124a5.66 5.66 0 00-4.166 4.99.788.788 0 01-.75.413.753.753 0 01-.466-.217l-1.096-1.104c.008.076.008.15.008.21v.728c0 .046.002.09-.004.135a.313.313 0 01-.063.15v.068c0 .035.004.067.008.1.008.066.017.135-.008.23-.024.09-.027.194-.03.287a1.288 1.288 0 01-.008.149c-.008.058-.008.12-.013.182a.463.463 0 01-.04.17.571.571 0 00-.05.223c-.002.036-.002.071-.002.108l-.045.232-1.703 8.12-.136.608-.052.886-.751 3.835-.12.6H97.7l-.293-.293-.052.255h-6.5l-3.617-3.64.345-1.643h-2.04l-1.27-1.283a8.938 8.938 0 01-5.425 1.711 7.918 7.918 0 01-5.674-2.086l-1.973-1.99-.428 1.997a8.67 8.67 0 01-.195.818l-.068.248-.112.36a.459.459 0 01-.038.09 8.15 8.15 0 01-.397.968.06.06 0 010 .038.983.983 0 01-.068.12 7.015 7.015 0 01-.375.653.95.95 0 00-.068.12l-.082.09a7.294 7.294 0 01-.6.75c-.06.06-.12.115-.18.17-.061.056-.124.111-.189.168l-.165.158a7.259 7.259 0 01-.593.442 9.072 9.072 0 01-5.125 1.254c-2.477 0-4.458-.72-5.711-1.982l-3.528-3.55a9.148 9.148 0 01-4.622 1.186 7.932 7.932 0 01-5.644-2.116l-1.974-1.989-.638 3.07-.127.608h-6.642L30 43.039l.188-.885 3.992-19.175.12-.6h6.664l.173.165v-.165h44.9l.166.165v-.165h6.499l3.632 3.662-.18.878-.195.96h1.868l.293.294a5.47 5.47 0 012.709-.75 5.016 5.016 0 013.753 1.575l-.098-.113 1.764 1.78c1.073-2.02 3.482-3.243 6.754-3.243 2.536 0 4.405.645 5.538 1.816l1.276 1.284.428-2.064.127-.6h6.507l1.861 1.868.263-1.26.128-.601h12.803l.345.345a5.416 5.416 0 012.867-.75 4.104 4.104 0 013.226 1.373l-.061-.07a2.17 2.17 0 00-.11-.124l.652.652a5.997 5.997 0 014.39-1.831 4.45 4.45 0 011.288.108l-.71-.716a.752.752 0 01.104-1.117.75.75 0 01.391-.144h.571c.153-.015.306-.037.457-.068a5.498 5.498 0 003.753-2.851 2.18 2.18 0 00.09-.173v-.037a5.196 5.196 0 00.465-1.764.751.751 0 01.751-.698h.06a.75.75 0 01.563.345c.54.526 3.541 3.58 3.541 3.58.251.269.232.618.213.971-.012.219-.024.439.027.642a4.91 4.91 0 00.812.075.75.75 0 01.697.518z" fill="#000"/><path d="M64.35 28.6h4.742l-2.656 12.6c-.488 2.387-1.419 3.753-2.83 4.721a8.435 8.435 0 01-4.712 1.126c-3.137 0-6.147-1.313-6.447-4.503h4.773c.15.75.84 1.178 1.891 1.178 1.419 0 2.071-.855 2.364-2.199l.285-1.388h-.105a4.592 4.592 0 01-3.294 1.501c-2.762 0-4.953-2.199-4.908-5.418.06-3.753 2.506-8.015 6.611-8.015a4.083 4.083 0 013.858 2.116h.082l.345-1.719zm-4.076 9.516c1.824 0 2.837-2.101 2.867-3.91 0-1.208-.473-2.446-1.868-2.446-1.907 0-2.875 2.124-2.905 3.947 0 1.231.473 2.41 1.869 2.41m53.283.405c0 .803-.691 1.125-1.599 1.125-1.501 0-2.003-.75-2.011-1.8h-4.72c-.083 3.917 3.415 4.885 6.522 4.885 3.969 0 6.544-1.719 6.596-5.148 0-2.74-2.334-3.573-4.63-4.106-1.764-.405-2.537-.697-2.53-1.366.008-.667.796-.938 1.569-.938.968 0 1.628.346 1.696 1.231h4.586c-.053-3.272-3.003-4.232-6.004-4.232-3.647 0-6.492 1.658-6.537 4.795 0 2.47 1.666 3.377 4.18 4.023 1.614.427 2.897.562 2.882 1.53zm35.069-7.888h-.082a3.359 3.359 0 00-3.423-2.461c-2.04 0-3.286 1.013-4.464 2.544h-.083l.435-2.117h-4.773l-2.859 13.674h4.991l1.501-7.377c.344-1.606 1.163-2.732 2.401-2.732 1.239 0 1.403.99 1.148 2.199l-1.651 7.91h4.99l1.502-7.377c.345-1.711 1.163-2.732 2.401-2.732 1.238 0 1.404.938 1.149 2.199l-1.652 7.91h4.991l1.786-8.128c.751-3.43-.397-6.004-3.692-6.004a5.477 5.477 0 00-4.616 2.492zM30.916 42.274h5.156l3.985-19.175h-5.149l-3.992 19.175zm15.52-14.079c3.482 0 6.806 1.906 6.754 6.221-.045 4.72-3.257 8.256-8.165 8.256-3.377 0-6.754-1.877-6.694-6.17.082-4.607 3.25-8.307 8.105-8.307zm-1.269 11.13c2.2 0 3.002-3.19 3.002-5.066 0-1.343-.412-2.657-1.86-2.657-2.177 0-2.92 3.377-2.92 5.119 0 1.395.39 2.604 1.808 2.604m-3.422-16.226l-.75 3.835h43.294l.75-3.835H41.776zm34.822 5.096c3.482 0 6.807 1.906 6.754 6.221-.045 4.72-3.264 8.256-8.172 8.256-3.377 0-6.755-1.877-6.687-6.17.105-4.607 3.272-8.307 8.105-8.307zm-1.246 11.13c2.2 0 3.002-3.19 3.002-5.066 0-1.343-.42-2.657-1.868-2.657-2.17 0-2.92 3.377-2.92 5.119 0 1.395.39 2.604 1.816 2.604m11.46-16.226l-.75 3.835h4.983l.75-3.835h-4.983zm-3.992 19.175h4.99L90.7 28.6h-5.021l-2.83 13.674zm15.924.458a4.285 4.285 0 01-3.992-2.094h-.083l-1.5 6.92h-5.051L92.199 28.6h4.743l-.375 1.824a5.532 5.532 0 014.27-2.251c3.002 0 4.766 2.574 4.713 5.92-.067 4.21-2.251 8.639-6.807 8.639h.03zm-.195-10.687c-1.928 0-3.114 2.47-3.144 4.368 0 1.32.465 2.792 2.049 2.792 2.063 0 2.911-2.732 2.934-4.556 0-1.238-.36-2.604-1.839-2.604zm28.856 8.075h.082l-.435 2.169h4.743l2.86-13.674H129.7l-1.591 7.64c-.322 1.584-1.298 2.417-2.529 2.417-1.231 0-1.501-1.156-1.253-2.364l1.613-7.693h-4.983l-1.764 8.443c-.75 3.677.961 5.659 3.828 5.659a5.116 5.116 0 004.413-2.612v.015zm26.769 7.505l.75-3.835H95.772l-.751 3.835h59.182z" fill="#fff"/><path d="M159.568 32.353a.373.373 0 01-.328-.26.362.362 0 01-.017-.146 4.776 4.776 0 00-1.255-3.688 4.754 4.754 0 00-3.586-1.52.376.376 0 01-.265-.64.376.376 0 01.265-.11c.18.011.361.011.541 0a5.763 5.763 0 005.133-5.254.376.376 0 01.375-.345.373.373 0 01.257.131.38.38 0 01.088.274 4.784 4.784 0 00.232 1.977 4.775 4.775 0 002.648 2.853 4.767 4.767 0 001.953.379.376.376 0 010 .75 5.785 5.785 0 00-5.665 5.253.377.377 0 01-.376.345z" fill="#fff"/></g><g filter="url(#filter0_b_309_95)"><path fill="#fff" fill-opacity=".7" d="M0 0h199v71H0z"/></g><defs><clipPath id="clip0_309_95"><path fill="#fff" transform="translate(30 20)" d="M0 0h140v32H0z"/></clipPath><filter id="filter0_b_309_95" x="-12" y="-12" width="223" height="95" filterUnits="userSpaceOnUse" color-interpolation-filters="sRGB"><feFlood flood-opacity="0" result="BackgroundImageFix"/><feGaussianBlur in="BackgroundImageFix" stdDeviation="6"/><feComposite in2="SourceAlpha" operator="in" result="effect1_backgroundBlur_309_95"/><feBlend in="SourceGraphic" in2="effect1_backgroundBlur_309_95" result="shape"/></filter></defs></svg>