<svg width="22" height="22" viewBox="0 0 22 22" fill="none" xmlns="http://www.w3.org/2000/svg">
<circle cx="11" cy="8" r="5" fill="#E8F3FF"/>
<path d="M20.1418 18.047C18.9635 15.9791 17.1237 14.3678 14.9185 13.4726C16.0151 12.6501 16.8252 11.5034 17.2339 10.195C17.6426 8.88652 17.6293 7.48265 17.1958 6.1822C16.7623 4.88175 15.9307 3.75065 14.8186 2.94913C13.7066 2.14762 12.3705 1.71631 10.9997 1.71631C9.62892 1.71631 8.29288 2.14762 7.18083 2.94913C6.06878 3.75065 5.23711 4.88175 4.80363 6.1822C4.37015 7.48265 4.35682 8.88652 4.76555 10.195C5.17428 11.5034 5.98433 12.6501 7.08097 13.4726C4.87574 14.3678 3.03593 15.9791 1.85769 18.047C1.78468 18.1644 1.73602 18.2953 1.7146 18.4319C1.69318 18.5684 1.69944 18.7079 1.73301 18.842C1.76658 18.9761 1.82676 19.1021 1.90999 19.2125C1.99323 19.3229 2.0978 19.4154 2.2175 19.4846C2.3372 19.5537 2.46959 19.5981 2.60679 19.6151C2.74398 19.632 2.88319 19.6213 3.01614 19.5834C3.14909 19.5455 3.27305 19.4812 3.38068 19.3944C3.4883 19.3077 3.57737 19.2001 3.64261 19.0783C5.1998 16.3867 7.9498 14.7814 10.9997 14.7814C14.0496 14.7814 16.7996 16.3876 18.3568 19.0783C18.4982 19.3056 18.7224 19.469 18.9821 19.534C19.2418 19.599 19.5166 19.5605 19.7484 19.4266C19.9802 19.2927 20.1509 19.0738 20.2243 18.8164C20.2977 18.5589 20.2681 18.283 20.1418 18.047ZM6.53097 8.25014C6.53097 7.3663 6.79306 6.50231 7.28409 5.76743C7.77512 5.03255 8.47304 4.45978 9.2896 4.12155C10.1062 3.78332 11.0047 3.69482 11.8715 3.86725C12.7384 4.03968 13.5346 4.46529 14.1596 5.09025C14.7846 5.71522 15.2102 6.51147 15.3826 7.37833C15.555 8.24518 15.4665 9.1437 15.1283 9.96025C14.7901 10.7768 14.2173 11.4747 13.4824 11.9658C12.7475 12.4568 11.8836 12.7189 10.9997 12.7189C9.81495 12.7175 8.6791 12.2463 7.84134 11.4085C7.00358 10.5708 6.53233 9.4349 6.53097 8.25014Z" fill="#4470FE"/>
</svg>
