<svg width="22" height="22" viewBox="0 0 22 22" fill="none" xmlns="http://www.w3.org/2000/svg">
<rect x="2" y="6" width="18" height="14" rx="4" fill="#E8F3FF"/>
<path d="M5.5 9.1665H9.16667" stroke="#4470FE" stroke-width="1.5" stroke-linecap="round" stroke-linejoin="round"/>
<path d="M19.0969 10.0835H16.7118C15.0755 10.0835 13.75 11.3146 13.75 12.8335C13.75 14.3524 15.0764 15.5835 16.7108 15.5835H19.0969C19.1739 15.5835 19.2115 15.5835 19.2436 15.5817C19.7386 15.5514 20.1327 15.1857 20.1648 14.7264C20.1667 14.6971 20.1667 14.6613 20.1667 14.5907V11.0762C20.1667 11.0057 20.1667 10.9699 20.1648 10.9406C20.1318 10.4813 19.7386 10.1156 19.2436 10.0853C19.2115 10.0835 19.1739 10.0835 19.0969 10.0835Z" stroke="#4470FE" stroke-width="1.5"/>
<path d="M19.2166 10.0833C19.1451 8.36733 18.9159 7.315 18.1744 6.57433C17.1009 5.5 15.3721 5.5 11.9154 5.5H9.16537C5.70862 5.5 3.97978 5.5 2.90636 6.57433C1.83203 7.64775 1.83203 9.37658 1.83203 12.8333C1.83203 16.2901 1.83203 18.0189 2.90636 19.0923C3.97978 20.1667 5.70862 20.1667 9.16537 20.1667H11.9154C15.3721 20.1667 17.1009 20.1667 18.1744 19.0923C18.9159 18.3517 19.146 17.2993 19.2166 15.5833" stroke="#4470FE" stroke-width="1.5"/>
<path d="M5.5 5.49999L8.92375 3.22941C9.40524 2.91622 9.96728 2.74951 10.5417 2.74951C11.1161 2.74951 11.6781 2.91622 12.1596 3.22941L15.5833 5.49999" stroke="#4470FE" stroke-width="1.5" stroke-linecap="round"/>
<path d="M16.4902 12.8335H16.5002" stroke="#4470FE" stroke-width="2" stroke-linecap="round" stroke-linejoin="round"/>
</svg>
