<svg width="20" height="20" viewBox="0 0 20 20" fill="none" xmlns="http://www.w3.org/2000/svg">
<g clip-path="url(#clip0_0_12571)">
<mask id="mask0_0_12571" style="mask-type:luminance" maskUnits="userSpaceOnUse" x="0" y="0" width="20" height="20">
<path d="M10.0003 18.3334C11.0949 18.3348 12.1789 18.1199 13.1902 17.7011C14.2014 17.2822 15.1199 16.6676 15.8928 15.8926C16.6678 15.1196 17.2824 14.2012 17.7013 13.1899C18.1202 12.1787 18.3351 11.0946 18.3337 10.0001C18.3351 8.90554 18.1201 7.8215 17.7013 6.81027C17.2824 5.79904 16.6678 4.88055 15.8928 4.10759C15.1199 3.3326 14.2014 2.718 13.1902 2.29912C12.1789 1.88024 11.0949 1.66534 10.0003 1.66676C8.90578 1.66536 7.82174 1.88028 6.81051 2.29916C5.79928 2.71804 4.88079 3.33262 4.10783 4.10759C3.33286 4.88055 2.71828 5.79904 2.2994 6.81027C1.88052 7.8215 1.6656 8.90554 1.667 10.0001C1.66558 11.0946 1.88049 12.1787 2.29937 13.1899C2.71825 14.2012 3.33284 15.1196 4.10783 15.8926C4.88079 16.6676 5.79928 17.2821 6.81051 17.701C7.82174 18.1199 8.90578 18.3348 10.0003 18.3334Z" fill="white" stroke="white" stroke-width="2" stroke-linejoin="round"/>
<path fill-rule="evenodd" clip-rule="evenodd" d="M10.0007 15.4168C10.2769 15.4168 10.5419 15.3071 10.7372 15.1117C10.9326 14.9164 11.0423 14.6514 11.0423 14.3752C11.0423 14.0989 10.9326 13.8339 10.7372 13.6386C10.5419 13.4432 10.2769 13.3335 10.0007 13.3335C9.72438 13.3335 9.45943 13.4432 9.26408 13.6386C9.06873 13.8339 8.95898 14.0989 8.95898 14.3752C8.95898 14.6514 9.06873 14.9164 9.26408 15.1117C9.45943 15.3071 9.72438 15.4168 10.0007 15.4168Z" fill="black"/>
<path d="M10 5V11.6667" stroke="black" stroke-width="2" stroke-linecap="round" stroke-linejoin="round"/>
</mask>
<g mask="url(#mask0_0_12571)">
<path d="M0 0H20V20H0V0Z" fill="#4470FE"/>
</g>
</g>
<defs>
<clipPath id="clip0_0_12571">
<rect width="20" height="20" fill="white"/>
</clipPath>
</defs>
</svg>
