<svg width="60" height="60" viewBox="0 0 60 60" fill="none" xmlns="http://www.w3.org/2000/svg">
<g clip-path="url(#clip0_50_4256)">
<ellipse cx="30" cy="27.2414" rx="27.5" ry="27.2414" fill="url(#paint0_linear_50_4256)"/>
<path d="M30.2785 27.8618C35.5846 27.8618 39.8861 23.6008 39.8861 18.3446C39.8861 13.0883 35.5846 8.82732 30.2785 8.82732C24.9724 8.82732 20.6709 13.0883 20.6709 18.3446C20.6709 23.6008 24.9724 27.8618 30.2785 27.8618Z" fill="url(#paint1_linear_50_4256)" stroke="url(#paint2_linear_50_4256)" stroke-width="0.794167" stroke-miterlimit="10" stroke-linecap="round" stroke-linejoin="round"/>
<path d="M46.3608 49.3106C46.3608 59.4486 39.19 60.3451 30.2786 60.3451C21.3672 60.3451 14.1963 59.4486 14.1963 49.3106C14.1963 39.1727 21.3672 30.9658 30.2786 30.9658C39.1203 30.9658 46.3608 39.1727 46.3608 49.3106Z" fill="url(#paint3_linear_50_4256)" stroke="url(#paint4_linear_50_4256)" stroke-width="0.833333" stroke-miterlimit="10" stroke-linecap="round" stroke-linejoin="round"/>
</g>
<defs>
<linearGradient id="paint0_linear_50_4256" x1="50.1899" y1="45.1724" x2="16.0785" y2="7.95451" gradientUnits="userSpaceOnUse">
<stop stop-color="#4470FE"/>
<stop offset="1" stop-color="#BCE1FF"/>
</linearGradient>
<linearGradient id="paint1_linear_50_4256" x1="35.0608" y1="26.5771" x2="25.6016" y2="10.0377" gradientUnits="userSpaceOnUse">
<stop stop-color="white" stop-opacity="0"/>
<stop offset="0.984" stop-color="white" stop-opacity="0.3936"/>
<stop offset="1" stop-color="white" stop-opacity="0.4"/>
</linearGradient>
<linearGradient id="paint2_linear_50_4256" x1="30.2635" y1="28.1775" x2="30.2635" y2="8.5147" gradientUnits="userSpaceOnUse">
<stop stop-color="white" stop-opacity="0"/>
<stop offset="1" stop-color="white" stop-opacity="0.7"/>
</linearGradient>
<linearGradient id="paint3_linear_50_4256" x1="37.5605" y1="60.959" x2="21.8831" y2="33.5472" gradientUnits="userSpaceOnUse">
<stop stop-color="#E1E8FF"/>
<stop offset="0.984" stop-color="white" stop-opacity="0.3936"/>
</linearGradient>
<linearGradient id="paint4_linear_50_4256" x1="30.2636" y1="60.6674" x2="30.2636" y2="30.6029" gradientUnits="userSpaceOnUse">
<stop stop-color="white" stop-opacity="0"/>
<stop offset="1" stop-color="white" stop-opacity="0.7"/>
</linearGradient>
<clipPath id="clip0_50_4256">
<rect width="60" height="60" fill="white"/>
</clipPath>
</defs>
</svg>
