<svg width="20" height="20" viewBox="0 0 20 20" fill="none" xmlns="http://www.w3.org/2000/svg">
<path d="M9.99965 18.3333C14.0296 18.3333 17.2963 15.0967 17.2963 11.1042C17.2963 7.1125 14.0296 3.875 9.99965 3.875C5.96965 3.875 2.70215 7.11167 2.70215 11.1042C2.70215 15.0958 5.96881 18.3333 9.99965 18.3333Z" fill="#4470FE"/>
<path d="M9.99993 7.28906C10.3349 7.28906 10.6074 7.55906 10.6074 7.89156V10.8549L12.4566 12.6866C12.513 12.7422 12.5578 12.8085 12.5883 12.8816C12.6189 12.9547 12.6346 13.0332 12.6346 13.1124C12.6346 13.1916 12.6189 13.2701 12.5883 13.3432C12.5578 13.4163 12.513 13.4826 12.4566 13.5382C12.3421 13.6514 12.1876 13.7149 12.0266 13.7149C11.8656 13.7149 11.7111 13.6514 11.5966 13.5382L9.5691 11.5299C9.51298 11.4742 9.46841 11.408 9.43795 11.3351C9.40749 11.2622 9.39174 11.1839 9.3916 11.1049V7.89156C9.3916 7.55823 9.66327 7.28906 9.99993 7.28906Z" fill="#E8F3FF"/>
<path fill-rule="evenodd" clip-rule="evenodd" d="M6.86642 1.94992C6.90868 2.01698 6.93722 2.09176 6.95037 2.16992C6.96353 2.24809 6.96104 2.32809 6.94306 2.40529C6.92508 2.48248 6.89195 2.55535 6.84561 2.61965C6.79927 2.68396 6.74063 2.73843 6.67309 2.77992L3.43059 4.78825C3.29375 4.87305 3.12899 4.90049 2.97205 4.86461C2.81512 4.82873 2.67865 4.73243 2.59226 4.59658C2.55 4.52952 2.52146 4.45475 2.50831 4.37658C2.49515 4.29841 2.49764 4.21842 2.51562 4.14122C2.5336 4.06402 2.56672 3.99116 2.61307 3.92685C2.65941 3.86254 2.71805 3.80807 2.78559 3.76658L6.02892 1.75825C6.16576 1.67345 6.33052 1.64601 6.48746 1.68189C6.6444 1.71777 6.78086 1.81408 6.86726 1.94992H6.86642ZM13.1331 1.94992C13.2195 1.81431 13.3558 1.71816 13.5125 1.68229C13.6693 1.64642 13.8338 1.67371 13.9706 1.75825L17.2139 3.76658C17.2815 3.80807 17.3401 3.86254 17.3864 3.92685C17.4328 3.99116 17.4659 4.06402 17.4839 4.14122C17.5019 4.21842 17.5044 4.29841 17.4912 4.37658C17.4781 4.45475 17.4495 4.52952 17.4073 4.59658C17.3209 4.73243 17.1844 4.82873 17.0275 4.86461C16.8705 4.90049 16.7058 4.87305 16.5689 4.78825L13.3264 2.77992C13.2588 2.7385 13.2001 2.68408 13.1537 2.6198C13.1072 2.55553 13.074 2.48268 13.056 2.40547C13.0379 2.32827 13.0354 2.24825 13.0485 2.17005C13.0616 2.09185 13.09 2.01703 13.1323 1.94992H13.1331Z" fill="#4470FE"/>
</svg>
