<svg width="10" height="10" viewBox="0 0 10 10" fill="none" xmlns="http://www.w3.org/2000/svg">
<path fill-rule="evenodd" clip-rule="evenodd" d="M4.16638 0.9375C4.02833 0.937432 3.8931 0.976553 3.77641 1.05031C3.65972 1.12407 3.56637 1.22944 3.50721 1.35417C3.22221 1.35667 3.00054 1.36958 2.80221 1.44708C2.56545 1.5397 2.35954 1.69709 2.20804 1.90125C2.05513 2.10667 1.98304 2.37083 1.88471 2.73375L1.86513 2.80458L1.65138 4.03958C1.57429 4.09292 1.50721 4.15625 1.44888 4.23083C1.07346 4.71125 1.25221 5.42667 1.60971 6.85625C1.83679 7.76583 1.95054 8.22042 2.28971 8.48542C2.62888 8.75 3.09763 8.75 4.03513 8.75H5.96429C6.90179 8.75 7.37054 8.75 7.70971 8.48542C8.04888 8.22042 8.16221 7.76583 8.38971 6.85625C8.74721 5.42625 8.92596 4.71167 8.55054 4.23083C8.49315 4.1569 8.42471 4.09225 8.34763 4.03917L8.13387 2.805L8.11471 2.73417C8.01596 2.37083 7.94388 2.10667 7.79138 1.90083C7.63982 1.69683 7.43392 1.53958 7.19721 1.44708C6.99888 1.36958 6.77679 1.35667 6.49221 1.35458C6.43311 1.22978 6.33978 1.12433 6.22309 1.05049C6.10639 0.976652 5.97113 0.93747 5.83304 0.9375H4.16638ZM7.67387 3.81083L7.52304 2.94083C7.40513 2.5075 7.36221 2.37125 7.28971 2.27375C7.20812 2.1638 7.09722 2.07903 6.96971 2.02917C6.87804 1.99333 6.76721 1.98292 6.49138 1.98C6.43215 2.10444 6.33888 2.20955 6.22236 2.28315C6.10585 2.35675 5.97086 2.39582 5.83304 2.39583H4.16638C4.02856 2.39582 3.89357 2.35675 3.77705 2.28315C3.66054 2.20955 3.56726 2.10444 3.50804 1.98C3.23179 1.98292 3.12138 1.99333 3.02971 2.02917C2.90219 2.07903 2.7913 2.1638 2.70971 2.27375C2.63721 2.37125 2.59429 2.50708 2.47638 2.94042L2.32554 3.81083C2.74138 3.75 3.29554 3.75 4.03513 3.75H5.96429C6.70388 3.75 7.25804 3.75 7.67387 3.81083ZM3.33304 5.10417C3.41592 5.10417 3.49541 5.13709 3.55401 5.1957C3.61262 5.2543 3.64554 5.33379 3.64554 5.41667V7.08333C3.64554 7.16621 3.61262 7.2457 3.55401 7.3043C3.49541 7.36291 3.41592 7.39583 3.33304 7.39583C3.25016 7.39583 3.17068 7.36291 3.11207 7.3043C3.05347 7.2457 3.02054 7.16621 3.02054 7.08333V5.41667C3.02054 5.33379 3.05347 5.2543 3.11207 5.1957C3.17068 5.13709 3.25016 5.10417 3.33304 5.10417ZM6.97888 5.41667C6.97888 5.33379 6.94595 5.2543 6.88735 5.1957C6.82874 5.13709 6.74926 5.10417 6.66638 5.10417C6.5835 5.10417 6.50401 5.13709 6.4454 5.1957C6.3868 5.2543 6.35388 5.33379 6.35388 5.41667V7.08333C6.35388 7.16621 6.3868 7.2457 6.4454 7.3043C6.50401 7.36291 6.5835 7.39583 6.66638 7.39583C6.74926 7.39583 6.82874 7.36291 6.88735 7.3043C6.94595 7.2457 6.97888 7.16621 6.97888 7.08333V5.41667ZM4.99971 5.10417C5.08259 5.10417 5.16207 5.13709 5.22068 5.1957C5.27928 5.2543 5.31221 5.33379 5.31221 5.41667V7.08333C5.31221 7.16621 5.27928 7.2457 5.22068 7.3043C5.16207 7.36291 5.08259 7.39583 4.99971 7.39583C4.91683 7.39583 4.83734 7.36291 4.77874 7.3043C4.72013 7.2457 4.68721 7.16621 4.68721 7.08333V5.41667C4.68721 5.33379 4.72013 5.2543 4.77874 5.1957C4.83734 5.13709 4.91683 5.10417 4.99971 5.10417Z" fill="#4470FE"/>
</svg>
