<svg width="60" height="60" viewBox="0 0 60 60" fill="none" xmlns="http://www.w3.org/2000/svg">
<g clip-path="url(#clip0_50_4241)">
<path d="M36.4561 20.9292C39.6705 24.8425 40.3544 30.1975 38.5762 34.7286C29.1383 34.5913 21.4785 26.9021 21.4785 17.3592C21.4785 17.0846 21.4785 16.81 21.4785 16.5354C26.6762 14.819 32.6946 16.3294 36.4561 20.9292Z" fill="url(#paint0_linear_50_4241)"/>
<path d="M15.1179 38.3674C14.5024 37.6122 13.9553 36.7883 13.5449 35.8959C13.9553 35.8272 14.434 35.7585 14.9127 35.7585C19.153 35.7585 22.7093 38.9853 23.1196 43.1731C20.1104 42.6239 17.238 40.9762 15.1179 38.3674Z" fill="url(#paint1_linear_50_4241)"/>
<path d="M56.085 17.3593C56.085 23.8814 52.4602 29.6483 47.1258 32.6004C48.0148 26.147 45.9631 19.2816 41.039 14.3385C36.4568 9.73872 30.2332 7.61046 24.2148 8.02238C27.2924 3.21662 32.6953 -0.0101013 38.7821 -0.0101013C48.3568 -0.0101013 56.085 7.81642 56.085 17.3593Z" fill="url(#paint2_linear_50_4241)"/>
<path d="M20.1107 50.588C18.6745 51.7552 16.828 52.4417 14.8446 52.4417C10.2624 52.4417 6.56934 48.7344 6.56934 44.1346C6.56934 42.9675 6.8429 41.8004 7.25324 40.7706C7.86876 41.8004 8.55267 42.7615 9.30497 43.654C12.3142 47.224 16.0757 49.4896 20.1107 50.588Z" fill="url(#paint3_linear_50_4241)"/>
<g filter="url(#filter0_b_50_4241)">
<path d="M41.0385 14.3384C32.2844 5.55068 17.7856 5.89395 9.44192 15.4368C2.46606 23.4693 2.39766 35.621 9.30514 43.6535C16.0758 51.5487 27.0184 53.3337 35.6356 48.8712C36.7299 48.3219 38.0977 48.5279 38.9867 49.4204L48.4247 58.8946C49.5189 59.9931 51.3655 59.9931 52.5281 58.8946L54.9218 56.4917C56.0161 55.3933 56.0161 53.5396 54.9218 52.3725L45.4839 42.967C44.5948 42.0745 44.3896 40.7014 44.9367 39.6029C49.177 31.4331 47.8775 21.2037 41.0385 14.3384ZM36.4563 38.3672C30.9166 45.1639 20.658 45.1639 15.1184 38.3672C11.0149 33.3554 11.0149 25.9408 15.1184 20.9291C20.658 14.1324 30.9166 14.1324 36.4563 20.9291C40.5597 25.9408 40.5597 33.3554 36.4563 38.3672Z" fill="url(#paint4_linear_50_4241)" fill-opacity="0.1"/>
<path d="M41.0385 14.3384C32.2844 5.55068 17.7856 5.89395 9.44192 15.4368C2.46606 23.4693 2.39766 35.621 9.30514 43.6535C16.0758 51.5487 27.0184 53.3337 35.6356 48.8712C36.7299 48.3219 38.0977 48.5279 38.9867 49.4204L48.4247 58.8946C49.5189 59.9931 51.3655 59.9931 52.5281 58.8946L54.9218 56.4917C56.0161 55.3933 56.0161 53.5396 54.9218 52.3725L45.4839 42.967C44.5948 42.0745 44.3896 40.7014 44.9367 39.6029C49.177 31.4331 47.8775 21.2037 41.0385 14.3384ZM36.4563 38.3672C30.9166 45.1639 20.658 45.1639 15.1184 38.3672C11.0149 33.3554 11.0149 25.9408 15.1184 20.9291C20.658 14.1324 30.9166 14.1324 36.4563 20.9291C40.5597 25.9408 40.5597 33.3554 36.4563 38.3672Z" stroke="url(#paint5_linear_50_4241)" stroke-width="0.833333" stroke-miterlimit="10" stroke-linecap="round" stroke-linejoin="round"/>
</g>
</g>
<defs>
<filter id="filter0_b_50_4241" x="-6.25" y="-2.41365" width="72.4092" height="72.5488" filterUnits="userSpaceOnUse" color-interpolation-filters="sRGB">
<feFlood flood-opacity="0" result="BackgroundImageFix"/>
<feGaussianBlur in="BackgroundImageFix" stdDeviation="5"/>
<feComposite in2="SourceAlpha" operator="in" result="effect1_backgroundBlur_50_4241"/>
<feBlend mode="normal" in="SourceGraphic" in2="effect1_backgroundBlur_50_4241" result="shape"/>
</filter>
<linearGradient id="paint0_linear_50_4241" x1="37.1668" y1="35.5706" x2="24.9687" y2="14.5238" gradientUnits="userSpaceOnUse">
<stop stop-color="#4470FE"/>
<stop offset="1" stop-color="#BCE1FF"/>
</linearGradient>
<linearGradient id="paint1_linear_50_4241" x1="21.3629" y1="44.2025" x2="15.7977" y2="34.6001" gradientUnits="userSpaceOnUse">
<stop stop-color="#4470FE"/>
<stop offset="1" stop-color="#D4E6FF"/>
</linearGradient>
<linearGradient id="paint2_linear_50_4241" x1="51.4915" y1="30.1011" x2="34.0813" y2="0.0612075" gradientUnits="userSpaceOnUse">
<stop stop-color="#4470FE"/>
<stop offset="1" stop-color="#BCE1FF"/>
</linearGradient>
<linearGradient id="paint3_linear_50_4241" x1="16.0068" y1="53.0858" x2="8.4821" y2="40.1026" gradientUnits="userSpaceOnUse">
<stop stop-color="#4470FE"/>
<stop offset="1" stop-color="#D4E6FF"/>
</linearGradient>
<linearGradient id="paint4_linear_50_4241" x1="29.9547" y1="8.00301" x2="60.0003" y2="60.0001" gradientUnits="userSpaceOnUse">
<stop stop-color="white"/>
<stop offset="1" stop-color="#002BB5"/>
</linearGradient>
<linearGradient id="paint5_linear_50_4241" x1="29.9547" y1="8.00301" x2="29.9547" y2="59.7185" gradientUnits="userSpaceOnUse">
<stop stop-color="#D7E0FF"/>
<stop offset="1" stop-color="white" stop-opacity="0"/>
</linearGradient>
<clipPath id="clip0_50_4241">
<rect width="60" height="60" fill="white"/>
</clipPath>
</defs>
</svg>
