<svg width="20" height="20" viewBox="0 0 20 20" fill="none" xmlns="http://www.w3.org/2000/svg">
<path d="M13.6337 11.6667C13.7003 11.1167 13.7503 10.5667 13.7503 10.0001C13.7503 9.43341 13.7003 8.88341 13.6337 8.33341H16.4503C16.5837 8.86675 16.667 9.42508 16.667 10.0001C16.667 10.5751 16.5837 11.1334 16.4503 11.6667M12.1587 16.3001C12.6587 15.3751 13.042 14.3751 13.3087 13.3334H15.767C14.9596 14.7236 13.6788 15.7767 12.1587 16.3001ZM11.9503 11.6667H8.05033C7.96699 11.1167 7.91699 10.5667 7.91699 10.0001C7.91699 9.43341 7.96699 8.87508 8.05033 8.33341H11.9503C12.0253 8.87508 12.0837 9.43341 12.0837 10.0001C12.0837 10.5667 12.0253 11.1167 11.9503 11.6667ZM10.0003 16.6334C9.30866 15.6334 8.75033 14.5251 8.40866 13.3334H11.592C11.2503 14.5251 10.692 15.6334 10.0003 16.6334ZM6.66699 6.66675H4.23366C5.03271 5.27276 6.31265 4.21799 7.83366 3.70008C7.33366 4.62508 6.95866 5.62508 6.66699 6.66675ZM4.23366 13.3334H6.66699C6.95866 14.3751 7.33366 15.3751 7.83366 16.3001C6.31585 15.7765 5.0377 14.7232 4.23366 13.3334ZM3.55033 11.6667C3.41699 11.1334 3.33366 10.5751 3.33366 10.0001C3.33366 9.42508 3.41699 8.86675 3.55033 8.33341H6.36699C6.30033 8.88341 6.25033 9.43341 6.25033 10.0001C6.25033 10.5667 6.30033 11.1167 6.36699 11.6667M10.0003 3.35841C10.692 4.35841 11.2503 5.47508 11.592 6.66675H8.40866C8.75033 5.47508 9.30866 4.35841 10.0003 3.35841ZM15.767 6.66675H13.3087C13.0478 5.63463 12.6616 4.63833 12.1587 3.70008C13.692 4.22508 14.967 5.28341 15.767 6.66675ZM10.0003 1.66675C5.39199 1.66675 1.66699 5.41675 1.66699 10.0001C1.66699 12.2102 2.54497 14.3298 4.10777 15.8926C4.88159 16.6665 5.80025 17.2803 6.8113 17.6991C7.82234 18.1179 8.90598 18.3334 10.0003 18.3334C12.2105 18.3334 14.3301 17.4554 15.8929 15.8926C17.4557 14.3298 18.3337 12.2102 18.3337 10.0001C18.3337 8.90573 18.1181 7.8221 17.6993 6.81105C17.2805 5.80001 16.6667 4.88135 15.8929 4.10752C15.1191 3.3337 14.2004 2.71987 13.1894 2.30109C12.1783 1.8823 11.0947 1.66675 10.0003 1.66675Z" fill="#4470FE"/>
</svg>
