<svg width="60" height="60" viewBox="0 0 60 60" fill="none" xmlns="http://www.w3.org/2000/svg">
<g clip-path="url(#clip0_50_4270)">
<mask id="mask0_50_4270" style="mask-type:luminance" maskUnits="userSpaceOnUse" x="0" y="13" width="46" height="46">
<path d="M22.5843 13.3005C10.1124 13.3005 0 22.5941 0 34.0273C0 39.443 2.29213 44.3906 6 48.068C5.86517 51.6784 5.19101 56.4924 2.96629 58.9662C7.2809 58.9662 11.7303 55.6232 14.2921 53.2831C16.8539 54.2191 19.6854 54.754 22.5843 54.754C35.0562 54.754 45.1685 45.4604 45.1685 34.0273C45.1685 22.5941 35.0562 13.3005 22.5843 13.3005Z" fill="white"/>
</mask>
<g mask="url(#mask0_50_4270)">
<g filter="url(#filter0_d_50_4270)">
<path d="M28.6513 13.836C27.8648 19.2963 29.9322 30.2168 44.494 30.2168C62.6962 30.2168 35.3929 9.82439 28.6513 13.836Z" fill="url(#paint0_linear_50_4270)"/>
</g>
</g>
<path d="M59.73 15.975C59.73 8.08544 52.7862 1.66684 44.157 1.66684C36.2693 1.66684 29.73 7.08254 28.7188 14.036C36.8761 16.1756 43.2131 22.3936 44.8311 30.2163C46.5839 30.1494 48.2693 29.8151 49.8873 29.2134C51.7075 30.8849 54.7412 33.1581 57.7075 33.1581C56.157 31.4197 55.685 28.1436 55.6176 25.6029C58.112 23.0622 59.73 19.7192 59.73 15.975Z" fill="url(#paint1_linear_50_4270)"/>
<g filter="url(#filter1_b_50_4270)">
<path d="M22.5843 13.3005C10.1124 13.3005 0 22.5941 0 34.0273C0 39.443 2.29213 44.3906 6 48.068C5.86517 51.6784 5.19101 56.4924 2.96629 58.9662C7.2809 58.9662 11.7303 55.6232 14.2921 53.2831C16.8539 54.2191 19.6854 54.754 22.5843 54.754C35.0562 54.754 45.1685 45.4604 45.1685 34.0273C45.1685 22.5941 35.0562 13.3005 22.5843 13.3005Z" fill="url(#paint2_linear_50_4270)"/>
<path d="M22.5843 13.3005C10.1124 13.3005 0 22.5941 0 34.0273C0 39.443 2.29213 44.3906 6 48.068C5.86517 51.6784 5.19101 56.4924 2.96629 58.9662C7.2809 58.9662 11.7303 55.6232 14.2921 53.2831C16.8539 54.2191 19.6854 54.754 22.5843 54.754C35.0562 54.754 45.1685 45.4604 45.1685 34.0273C45.1685 22.5941 35.0562 13.3005 22.5843 13.3005Z" stroke="url(#paint3_linear_50_4270)" stroke-width="0.794167" stroke-miterlimit="10" stroke-linecap="round" stroke-linejoin="round"/>
</g>
<path d="M16.045 39.2424C16.045 40.3791 15.1012 41.3151 13.9551 41.3151C12.8091 41.3151 11.8652 40.3791 11.8652 39.2424C11.8652 38.1058 12.8091 37.1698 13.9551 37.1698C15.1012 37.1698 16.045 38.1058 16.045 39.2424ZM22.5843 37.1698C21.4383 37.1698 20.4944 38.1058 20.4944 39.2424C20.4944 40.3791 21.4383 41.3151 22.5843 41.3151C23.7304 41.3151 24.6742 40.3791 24.6742 39.2424C24.6742 38.1058 23.7304 37.1698 22.5843 37.1698ZM31.281 37.1698C30.1349 37.1698 29.1911 38.1058 29.1911 39.2424C29.1911 40.3791 30.1349 41.3151 31.281 41.3151C32.427 41.3151 33.3709 40.3791 33.3709 39.2424C33.3709 38.1058 32.427 37.1698 31.281 37.1698Z" fill="url(#paint4_linear_50_4270)"/>
</g>
<defs>
<filter id="filter0_d_50_4270" x="25.1745" y="13.3132" width="28.8092" height="23.5703" filterUnits="userSpaceOnUse" color-interpolation-filters="sRGB">
<feFlood flood-opacity="0" result="BackgroundImageFix"/>
<feColorMatrix in="SourceAlpha" type="matrix" values="0 0 0 0 0 0 0 0 0 0 0 0 0 0 0 0 0 0 127 0" result="hardAlpha"/>
<feOffset dy="3.33333"/>
<feGaussianBlur stdDeviation="1.66667"/>
<feComposite in2="hardAlpha" operator="out"/>
<feColorMatrix type="matrix" values="0 0 0 0 0.266667 0 0 0 0 0.439216 0 0 0 0 0.996078 0 0 0 0.39 0"/>
<feBlend mode="normal" in2="BackgroundImageFix" result="effect1_dropShadow_50_4270"/>
<feBlend mode="normal" in="SourceGraphic" in2="effect1_dropShadow_50_4270" result="shape"/>
</filter>
<filter id="filter1_b_50_4270" x="-3.73079" y="9.57012" width="52.6296" height="53.1265" filterUnits="userSpaceOnUse" color-interpolation-filters="sRGB">
<feFlood flood-opacity="0" result="BackgroundImageFix"/>
<feGaussianBlur in="BackgroundImageFix" stdDeviation="1.66667"/>
<feComposite in2="SourceAlpha" operator="in" result="effect1_backgroundBlur_50_4270"/>
<feBlend mode="normal" in="SourceGraphic" in2="effect1_backgroundBlur_50_4270" result="shape"/>
</filter>
<linearGradient id="paint0_linear_50_4270" x1="29.3254" y1="15.1731" x2="56.8343" y2="32.7626" gradientUnits="userSpaceOnUse">
<stop stop-color="#4975FE"/>
<stop offset="1" stop-color="#B5DBFF"/>
</linearGradient>
<linearGradient id="paint1_linear_50_4270" x1="35.3905" y1="3.56387" x2="61.2451" y2="29.6333" gradientUnits="userSpaceOnUse">
<stop stop-color="#4470FE"/>
<stop offset="1" stop-color="#BCE1FF"/>
</linearGradient>
<linearGradient id="paint2_linear_50_4270" x1="10.1124" y1="51.2775" x2="38.1644" y2="19.2885" gradientUnits="userSpaceOnUse">
<stop stop-color="#DCE5FF"/>
<stop offset="1" stop-color="white" stop-opacity="0.4"/>
</linearGradient>
<linearGradient id="paint3_linear_50_4270" x1="22.5884" y1="59.3156" x2="22.5884" y2="12.9652" gradientUnits="userSpaceOnUse">
<stop stop-color="white" stop-opacity="0"/>
<stop offset="1" stop-color="#DDE5FF"/>
</linearGradient>
<linearGradient id="paint4_linear_50_4270" x1="16.768" y1="33.4815" x2="28.3128" y2="45.1223" gradientUnits="userSpaceOnUse">
<stop stop-color="#B8DEFF"/>
<stop offset="1" stop-color="#4470FE"/>
</linearGradient>
<clipPath id="clip0_50_4270">
<rect width="60" height="60" fill="white"/>
</clipPath>
</defs>
</svg>
