<svg width="16" height="16" viewBox="0 0 16 16" fill="none" xmlns="http://www.w3.org/2000/svg">
    <g clip-path="url(#clip0_50_16677)">
        <path
            d="M13.3337 11.6668C13.5905 11.667 13.8374 11.7659 14.0232 11.9431C14.2091 12.1203 14.3197 12.3623 14.332 12.6188C14.3443 12.8753 14.2575 13.1267 14.0895 13.321C13.9216 13.5152 13.6853 13.6374 13.4297 13.6622L13.3337 13.6668H2.66699C2.41018 13.6667 2.16326 13.5678 1.9774 13.3906C1.79154 13.2133 1.68098 12.9714 1.66864 12.7149C1.6563 12.4584 1.74312 12.2069 1.91111 12.0127C2.0791 11.8184 2.31538 11.6963 2.57099 11.6715L2.66699 11.6668H13.3337ZM13.3337 7.00016C13.5989 7.00016 13.8532 7.10552 14.0408 7.29306C14.2283 7.48059 14.3337 7.73495 14.3337 8.00016C14.3337 8.26538 14.2283 8.51973 14.0408 8.70727C13.8532 8.89481 13.5989 9.00016 13.3337 9.00016H2.66699C2.40178 9.00016 2.14742 8.89481 1.95989 8.70727C1.77235 8.51973 1.66699 8.26538 1.66699 8.00016C1.66699 7.73495 1.77235 7.48059 1.95989 7.29306C2.14742 7.10552 2.40178 7.00016 2.66699 7.00016H13.3337ZM13.3337 2.3335C13.5989 2.3335 13.8532 2.43885 14.0408 2.62639C14.2283 2.81393 14.3337 3.06828 14.3337 3.3335C14.3337 3.59871 14.2283 3.85307 14.0408 4.0406C13.8532 4.22814 13.5989 4.3335 13.3337 4.3335H2.66699C2.40178 4.3335 2.14742 4.22814 1.95989 4.0406C1.77235 3.85307 1.66699 3.59871 1.66699 3.3335C1.66699 3.06828 1.77235 2.81393 1.95989 2.62639C2.14742 2.43885 2.40178 2.3335 2.66699 2.3335H13.3337Z"
            fill="#4470FE" />
    </g>
    <defs>
        <clipPath id="clip0_50_16677">
            <rect width="16" height="16" fill="white" />
        </clipPath>
    </defs>
</svg>
