<svg width="20" height="20" viewBox="0 0 20 20" fill="none" xmlns="http://www.w3.org/2000/svg">
<path fill-rule="evenodd" clip-rule="evenodd" d="M7.49972 2.68583C7.49968 2.49709 7.56372 2.31392 7.68135 2.16632C7.79898 2.01872 7.96323 1.91542 8.14722 1.87333C9.3664 1.5957 10.6325 1.59627 11.8514 1.87499C12.0355 1.91692 12.2 2.02015 12.3178 2.16777C12.4356 2.31539 12.4997 2.49864 12.4997 2.68749V4.22666C12.4997 4.37294 12.5382 4.51664 12.6114 4.64332C12.6845 4.77 12.7897 4.8752 12.9164 4.94833C13.0431 5.02147 13.1868 5.05997 13.3331 5.05997C13.4793 5.05997 13.623 5.02147 13.7497 4.94833L15.0839 4.17749C15.2476 4.08301 15.4385 4.04698 15.6253 4.07529C15.8122 4.10361 15.9839 4.1946 16.1122 4.33333C16.9603 5.25099 17.5927 6.34657 17.9631 7.54C18.019 7.72048 18.0119 7.91462 17.943 8.09056C17.8742 8.26651 17.7475 8.41382 17.5839 8.50833L16.2497 9.27833C16.123 9.35147 16.0179 9.45667 15.9447 9.58335C15.8716 9.71002 15.8331 9.85372 15.8331 10C15.8331 10.1463 15.8716 10.29 15.9447 10.4166C16.0179 10.5433 16.123 10.6485 16.2497 10.7217L17.5831 11.4908C17.7465 11.5853 17.873 11.7325 17.9419 11.9082C18.0108 12.084 18.018 12.278 17.9622 12.4583C17.5944 13.6534 16.9621 14.7503 16.1122 15.6675C15.9838 15.8061 15.812 15.8969 15.6252 15.9251C15.4383 15.9532 15.2475 15.9171 15.0839 15.8225L13.7497 15.0517C13.623 14.9785 13.4793 14.94 13.3331 14.94C13.1868 14.94 13.0431 14.9785 12.9164 15.0517C12.7897 15.1248 12.6845 15.23 12.6114 15.3567C12.5382 15.4833 12.4997 15.627 12.4997 15.7733V17.315C12.4995 17.5037 12.4353 17.6868 12.3175 17.8342C12.1997 17.9817 12.0354 18.0848 11.8514 18.1267C10.6322 18.4043 9.36615 18.4037 8.14722 18.125C7.96323 18.0829 7.79898 17.9796 7.68135 17.832C7.56372 17.6844 7.49968 17.5012 7.49972 17.3125V15.7733C7.49971 15.627 7.46121 15.4833 7.38806 15.3567C7.31492 15.23 7.20972 15.1248 7.08304 15.0517C6.95636 14.9785 6.81266 14.94 6.66638 14.94C6.5201 14.94 6.3764 14.9785 6.24972 15.0517L4.91555 15.8225C4.75188 15.917 4.56094 15.953 4.37409 15.9247C4.18724 15.8964 4.01555 15.8054 3.88722 15.6667C3.46442 15.2094 3.09407 14.7062 2.78305 14.1667C2.47133 13.6274 2.22089 13.0549 2.03639 12.46C1.98044 12.2795 1.9875 12.0854 2.05639 11.9094C2.12529 11.7335 2.25193 11.5862 2.41555 11.4917L3.74889 10.7217C3.87556 10.6485 3.98075 10.5433 4.05388 10.4166C4.12701 10.29 4.16552 10.1463 4.16552 10C4.16552 9.85372 4.12701 9.71002 4.05388 9.58335C3.98075 9.45667 3.87556 9.35147 3.74889 9.27833L2.41722 8.50916C2.25362 8.41482 2.12692 8.2677 2.05788 8.09192C1.98884 7.91614 1.98156 7.72212 2.03722 7.54166C2.40517 6.34688 3.03748 5.2503 3.88722 4.33333C4.0155 4.19479 4.18703 4.10393 4.3737 4.07562C4.56037 4.04731 4.75113 4.08323 4.91472 4.17749L6.24972 4.94833C6.3764 5.02147 6.5201 5.05997 6.66638 5.05997C6.81266 5.05997 6.95636 5.02147 7.08304 4.94833C7.20972 4.8752 7.31492 4.77 7.38806 4.64332C7.46121 4.51664 7.49971 4.37294 7.49972 4.22666V2.68499V2.68583ZM9.99972 12.5C10.6628 12.5 11.2986 12.2366 11.7675 11.7678C12.2363 11.2989 12.4997 10.663 12.4997 10C12.4997 9.33695 12.2363 8.70107 11.7675 8.23223C11.2986 7.76339 10.6628 7.5 9.99972 7.5C9.33668 7.5 8.70079 7.76339 8.23195 8.23223C7.76311 8.70107 7.49972 9.33695 7.49972 10C7.49972 10.663 7.76311 11.2989 8.23195 11.7678C8.70079 12.2366 9.33668 12.5 9.99972 12.5Z" fill="#4470FE"/>
</svg>
